<svg xmlns="http://www.w3.org/2000/svg" xmlns:xlink="http://www.w3.org/1999/xlink" viewBox="0 0 379.75 7.45"><defs><clipPath id="clip-path" transform="translate(0 0)"><rect width="379.75" height="7.45" style="fill:none"/></clipPath></defs><title>border</title><g id="Layer_2" data-name="Layer 2"><g id="Layer_1-2" data-name="Layer 1"><g style="clip-path:url(#clip-path)"><path d="M2.87,5.36c31.08-3.4,63,0,94.37.18,31.81.15,63.59-.91,95.4-.57,31.2.33,62.32,1.91,93.52,2.25,29.93.32,61.92.67,91.59-1.58,3.27-.25,2.19-3-.74-3.06-30-1.13-60.74,1.16-90.85,1-32.85-.21-65.6-1.95-98.45-2.3C155.87.91,124,2,92.21,1.94,63,1.87,29.73-2.93,1.63,2.85c-2.81.58-1.72,2.83,1.24,2.51" transform="translate(0 0)" style="fill:#402b2e"/></g></g></g></svg>