<svg xmlns="http://www.w3.org/2000/svg" viewBox="0 0 64 58"><title>cart-light</title><g id="Layer_2" data-name="Layer 2"><g id="Layer_1-2" data-name="Layer 1"><g id="shopping_basket_business_e-commerce_economy_company" data-name="shopping basket business e-commerce economy company"><path d="M57,28H7a1,1,0,0,0-1,1.21l5.49,25.63A4,4,0,0,0,15.43,58H48.57a4,4,0,0,0,3.92-3.16L58,29.21A1,1,0,0,0,57.21,28Z" style="fill:#465902"/><path d="M60,22H35a1,1,0,0,0-1,1v2H30V23a1,1,0,0,0-1-1H4a4,4,0,0,0,0,8H60a4,4,0,0,0,0-8Z" style="fill:#91a93e"/><path d="M23.67,53a1,1,0,0,1-1-1V36a1,1,0,0,1,2,0V52A1,1,0,0,1,23.67,53Z" style="fill:#efe2c7"/><path d="M32,53a1,1,0,0,1-1-1V36a1,1,0,0,1,2,0V52A1,1,0,0,1,32,53Z" style="fill:#efe2c7"/><path d="M40.33,53a1,1,0,0,1-1-1V36a1,1,0,0,1,2,0V52A1,1,0,0,1,40.33,53Z" style="fill:#efe2c7"/><path d="M32,0a4,4,0,0,0-4,4V26a1,1,0,0,0,1,1h6a1,1,0,0,0,1-1V4A4,4,0,0,0,32,0Z" style="fill:#465902"/></g></g></g></svg>