<svg xmlns="http://www.w3.org/2000/svg" viewBox="0 0 38.06 38.06"><title>cutlery</title><g id="Layer_2" data-name="Layer 2"><g id="Layer_1-2" data-name="Layer 1"><rect width="38.06" height="38.06" style="fill:none"/><g id="cutlery"><path d="M12.22,14.78a.44.44,0,0,0,.46-.46V9.69a.46.46,0,0,0-.93,0v4.63A.44.44,0,0,0,12.22,14.78Z" style="fill:#465902"/><path d="M14.68,11.36c0-.23-.09-1.3-.14-1.67A.42.42,0,0,0,14,9.27c-.23,0-.42.19-.42.46s.09,1.43.14,1.71l.32,2.41A1.26,1.26,0,0,1,13.66,15a1.35,1.35,0,0,1-.56.32,1.68,1.68,0,0,0-.88.6,2,2,0,0,0-.88-.6,1.11,1.11,0,0,1-.56-.32,1.26,1.26,0,0,1-.42-1.11l.32-2.41c0-.28.14-1.57.14-1.71a.46.46,0,0,0-.93-.09c0,.42-.09,1.48-.14,1.71l-.32,2.36a2.28,2.28,0,0,0,.69,1.9,3.08,3.08,0,0,0,.93.56,1,1,0,0,1,.69.93v3.24a.42.42,0,0,0,.14.32l.23.23a1.85,1.85,0,0,1,.56,1.34v6a.46.46,0,0,1-.93,0V21.72a.46.46,0,0,0-.93,0v6.48a1.39,1.39,0,0,0,2.78,0v-6a2.59,2.59,0,0,0-.83-1.94l-.09-.14V17.09a1,1,0,0,1,.69-.93,2.16,2.16,0,0,0,.93-.56,2.28,2.28,0,0,0,.69-1.9Z" style="fill:#465902"/><path d="M20.09,9.23h0c-1.94,0-2.54,1-2.87,2.5a30.77,30.77,0,0,0-.37,3.19,2.63,2.63,0,0,0,2.41,2.54.45.45,0,0,1,.37.46v2.41a.42.42,0,0,0,.14.32l.23.23a1.85,1.85,0,0,1,.56,1.34v6a.46.46,0,0,1-.93,0V21.72a.46.46,0,0,0-.93,0v6.48a1.39,1.39,0,0,0,2.78,0v-6a2.59,2.59,0,0,0-.83-1.94l-.09-.14V17.92a.45.45,0,0,1,.37-.46,2.64,2.64,0,0,0,2.41-2.59A31.66,31.66,0,0,0,23,11.73C22.63,10.2,22,9.23,20.09,9.23Zm.65,7.35a1.71,1.71,0,0,0-.65.32,1.23,1.23,0,0,0-.65-.32c-1-.19-1.67-.79-1.67-1.62,0,0,.19-2.31.32-3,.32-1.43.74-1.8,2-1.8h0c1.25,0,1.67.37,2,1.8.14.69.32,3,.32,3C22.4,15.75,21.8,16.4,20.74,16.58Z" style="fill:#465902"/><path d="M26,9.32a.5.5,0,0,0-.51-.09.56.56,0,0,0-.28.46v18.5a1.39,1.39,0,0,0,2.78,0V23.66a1.68,1.68,0,0,0-.56-1.3.46.46,0,0,0-.65.65.91.91,0,0,1,.28.65v4.53a.46.46,0,0,1-.93,0V10.8a10.46,10.46,0,0,1,2.78,7.08v2.91H27.49a.46.46,0,0,0,0,.93h1.85a.44.44,0,0,0,.46-.46V17.83A11.38,11.38,0,0,0,26,9.32Z" style="fill:#465902"/></g></g></g></svg>