<svg xmlns="http://www.w3.org/2000/svg" viewBox="0 0 38.06 38.06"><title>delivery</title><g id="Layer_2" data-name="Layer 2"><g id="Layer_1-2" data-name="Layer 1"><rect width="38.06" height="38.06" style="fill:none"/><circle cx="13.21" cy="26.49" r="0.65" style="fill:#465902"/><circle cx="28.06" cy="26.49" r="0.65" style="fill:#465902"/><path d="M33.09,19.78l-1.94-1.42-1.87-5.62a.62.62,0,0,0-.58-.45H22.89a.61.61,0,0,0-.65.65V25.85H16.37a3.23,3.23,0,0,0-6.33,0H7.39a.61.61,0,0,1-.65-.65V11a.61.61,0,0,1,.65-.65H22.25a.65.65,0,1,0,1.29,0V9.7a.61.61,0,0,0-.65-.65H7.39A1.9,1.9,0,0,0,5.46,11V25.2a1.9,1.9,0,0,0,1.94,1.94H10a3.23,3.23,0,0,0,6.33,0h6.52a.61.61,0,0,0,.65-.65V13.58h4.71l1.49,4.52H28.44l.19-.39a.68.68,0,0,0-.26-.84.71.71,0,0,0-.84.26l-.52,1H25.47a.65.65,0,0,0,0,1.29h5l1.87,1.42a.8.8,0,0,1,.26.52V25.2a.61.61,0,0,1-.65.65h-.71a3.25,3.25,0,0,0-3.16-2.58,3.23,3.23,0,0,0,0,6.46,3.25,3.25,0,0,0,3.16-2.58h.71a1.9,1.9,0,0,0,1.94-1.94V21.33A1.93,1.93,0,0,0,33.09,19.78ZM13.21,28.43a1.94,1.94,0,1,1,1.94-1.94A1.9,1.9,0,0,1,13.21,28.43Zm14.85,0A1.94,1.94,0,1,1,30,26.49,1.9,1.9,0,0,1,28.06,28.43Z" style="fill:#465902"/><path d="M14.88,21.26a.39.39,0,0,0,.26.06.69.69,0,0,0,.39-.13L19.4,18a.8.8,0,0,0,.26-.52.59.59,0,0,0-.26-.52l-3.87-3.23a.69.69,0,0,0-.71-.06.68.68,0,0,0-.32.58v1.29H10a.65.65,0,0,0,0,1.29h5.17a.61.61,0,0,0,.65-.65v-.58L18,17.45l-2.2,1.87v-.58a.61.61,0,0,0-.65-.65H10a.65.65,0,1,0,0,1.29H14.5v1.29A.62.62,0,0,0,14.88,21.26Z" style="fill:#465902"/></g></g></svg>