<svg xmlns="http://www.w3.org/2000/svg" viewBox="0 0 38.06 38.06"><title>farmer</title><g id="Layer_2" data-name="Layer 2"><g id="Layer_1-2" data-name="Layer 1"><rect width="38.06" height="38.06" style="fill:none"/><circle cx="17.32" cy="15.38" r="0.57" style="fill:#465902"/><circle cx="20.75" cy="15.38" r="0.57" style="fill:#465902"/><path d="M18.46,18.82H19.6a.57.57,0,0,0,0-1.14H18.46a.57.57,0,0,0,0,1.14Z" style="fill:#465902"/><path d="M11,12.52H27a.57.57,0,1,0,0-1.14H24.75V11a6.42,6.42,0,0,0-.67-2.85l-.21-.43a1.71,1.71,0,0,0-1.54-.95h-6.6a1.71,1.71,0,0,0-1.54.95L14,8.18A6.42,6.42,0,0,0,13.31,11v.34H11a.57.57,0,0,0,0,1.14ZM14.45,11A5.26,5.26,0,0,1,15,8.69l.21-.43a.57.57,0,0,1,.51-.32h6.6a.57.57,0,0,1,.51.32l.21.43A5.26,5.26,0,0,1,23.61,11v.34H14.45Z" style="fill:#465902"/><path d="M14.74,16.5l-.14-2.3a.58.58,0,0,0-.61-.54.57.57,0,0,0-.54.61l.14,2.3a5.44,5.44,0,0,0,10.87,0l.14-2.3a.57.57,0,0,0-1.14-.07l-.14,2.3a4.3,4.3,0,0,1-8.58,0Z" style="fill:#465902"/><path d="M26.46,23.61l-3.88-.78H22a1.89,1.89,0,0,0-1.48.71L19,25.34l-1.44-1.81a1.89,1.89,0,0,0-1.48-.71h-.62l-3.88.78a2.87,2.87,0,0,0-2.3,2.81v3.85A1.72,1.72,0,0,0,11,32H24.75a.57.57,0,0,0,.57-.57V29.34a12.21,12.21,0,0,1,.09-1.51l.19-1.5a.57.57,0,1,0-1.14-.14l-.19,1.5a13.32,13.32,0,0,0-.1,1.66v1.49H13.88V29.34a13.3,13.3,0,0,0-.1-1.65l-.41-3.26L15.66,24h.45a.75.75,0,0,1,.59.28l1.89,2.36a.59.59,0,0,0,.89,0l1.89-2.36A.75.75,0,0,1,22,24h.5L22,27.47a.57.57,0,0,1-.57.5H16.61a.57.57,0,0,1-.57-.5l-.23-1.86a.57.57,0,1,0-1.14.14l.23,1.86a1.72,1.72,0,0,0,1.7,1.5h4.85a1.72,1.72,0,0,0,1.7-1.5l.43-3.41,2.65.53a1.72,1.72,0,0,1,1.38,1.68v3.85a.57.57,0,0,1-.57.57A.57.57,0,0,0,27,32a1.72,1.72,0,0,0,1.72-1.72V26.42A2.87,2.87,0,0,0,26.46,23.61ZM12.64,27.83a12.2,12.2,0,0,1,.09,1.51v1.49H11a.57.57,0,0,1-.57-.57V26.42a1.72,1.72,0,0,1,1.38-1.68l.42-.08Z" style="fill:#465902"/></g></g></svg>