<svg xmlns="http://www.w3.org/2000/svg" viewBox="0 0 41.98 41.98"><title>fruits</title><g id="Layer_2" data-name="Layer 2"><g id="Layer_1-2" data-name="Layer 1"><g id="banana"><rect width="41.98" height="41.98" style="fill:none"/><path d="M39.36,13.12A6.56,6.56,0,0,0,36.74,7.9v-4a2.62,2.62,0,0,0-2.62-2.62H31.49a2.62,2.62,0,0,0-2.62,2.62v4a6.56,6.56,0,0,0-2.62,5.22c0,2.28-2.24,4.61-5.25,6.82V39.53C32.65,36.43,39.36,27,39.36,13.12Z" style="fill:#efe2c7"/><path d="M11.81,40.67c-6.31,0-9.18-3.4-9.18-6.56s4.52-5.69,10.25-9c6-3.48,13.37-7.82,13.37-12A6.56,6.56,0,0,1,28.86,7.9v-4a2.62,2.62,0,0,1,2.62-2.62h2.62a2.62,2.62,0,0,1,2.62,2.62v4a6.56,6.56,0,0,1,2.62,5.22C39.36,30.37,29.06,40.67,11.81,40.67ZM31.49,3.94V8.6a1.31,1.31,0,0,1-.66,1.13,3.89,3.89,0,0,0-2,3.39c0,5.64-7.79,10.2-14.67,14.22-3.78,2.21-8.95,5.23-8.95,6.77,0,2,2.25,3.94,6.56,3.94C27.65,38,36.74,29,36.74,13.12a3.89,3.89,0,0,0-2-3.39,1.31,1.31,0,0,1-.66-1.13V3.94Z" style="fill:#412b2f"/></g></g></g></svg>