<svg xmlns="http://www.w3.org/2000/svg" viewBox="0 0 148.98 108.83"><defs><style>.cls-1{fill:#412b2f;}.cls-2{fill:#91a93e;}</style></defs><title>icon</title><g id="Layer_2" data-name="Layer 2"><g id="Layer_1-2" data-name="Layer 1"><path class="cls-1" d="M138.61,67.77a2.76,2.76,0,0,0-1.87.73l-.32.3a57.75,57.75,0,0,1-11,7.77h-.2A63,63,0,0,1,111.39,82c-1.09.3-2.17.53-3.22.74a62.35,62.35,0,0,1-6.67,1,13.65,13.65,0,0,1,6.93,4.21c1.41-.29,2.93-.58,4.27-1a69.22,69.22,0,0,0,26.67-13.48l1.08-.94a3,3,0,0,0,1-2.16h0A2.94,2.94,0,0,0,138.61,67.77Z"/><path class="cls-1" d="M87.23,89a13.66,13.66,0,0,1,6.7-4.91,54.68,54.68,0,0,1-6.64-.53,52.48,52.48,0,0,1-6.9-1.43,38,38,0,0,1-20.7-13.77h0l-.35-.47-.15-.23-.26-.3a4.45,4.45,0,0,0-.38-.58h0a49.66,49.66,0,0,1-7.28-26q0-.67,0-1.35V37.86a28.59,28.59,0,0,0-.38-4.71,29.65,29.65,0,0,0-.79-3.45c-.23-.67-.44-1.34-.67-2l-.53-1.4c-.17-.47-.52-1.29-.82-1.93l-.47-1A42,42,0,0,0,12.53.08a41.17,41.17,0,0,0-5.21,0,39.77,39.77,0,0,0-6.23,1A39.13,39.13,0,0,0,.36,5.49,22.32,22.32,0,0,0,.07,8,42,42,0,0,0,26.39,49.38a41.47,41.47,0,0,0,13.18,2.93,48.38,48.38,0,0,0,6.14,0h.59A50.1,50.1,0,0,0,49,62.57a31,31,0,0,0,4.59,9.18,25.52,25.52,0,0,0,1.58,2v.14a43.29,43.29,0,0,0,19.5,12.61,56.21,56.21,0,0,0,9.91,2.34Zm-65-48.62A41.9,41.9,0,0,1,6.71,5.26,41.88,41.88,0,0,1,32.23,15.7,42.13,42.13,0,0,1,46.12,41.25v.35h0a4.57,4.57,0,0,1-.38-.49l-2.13-1.87-4.07-3.45-4.38-3.54L33,30.61a18.63,18.63,0,0,0-.58-5.56,21.9,21.9,0,0,0-2.19-5.46c-.24-.35-1.11-2-1.64-2s-.62,1.69-.64,2a16.39,16.39,0,0,0,.55,5.53A20.53,20.53,0,0,0,29.43,28L26.5,26l-3.18-2.19c-1.58-1-2.93-2-4.39-2.93-2.28-1.22-4.24-2.34-5.58-3s-1.58-.38-.41.88,2.77,2.89,4.67,4.8c1.29,1.22,2.72,2.57,4.27,4l1.26,1.11a5.15,5.15,0,0,0-1.11,0h-.41A6.05,6.05,0,0,0,18.7,30c-.21.23-.94.9-.68,1.55s1.32,1,1.58,1.11a6.1,6.1,0,0,0,1.52.35,8.25,8.25,0,0,0,2.43,0,6.28,6.28,0,0,0,3.19-1.49l1.9,1.57c1.4,1.15,2.92,2.31,4.27,3.43s2.1,1.6,3.16,2.36a13.64,13.64,0,0,0-2.93.24,9.66,9.66,0,0,0-4.09,2c-.24.2-1.41,1.05-1.17,1.58s1.81.93,2.16,1a11.91,11.91,0,0,0,4.83,0A9.49,9.49,0,0,0,39,41.75a3.39,3.39,0,0,0,.44-.41l2.13,1.49c1.38,1,2.66,1.84,3.95,2.66l.38.24a17.73,17.73,0,0,0,.26,3.71A41.85,41.85,0,0,1,22.21,40.35Z"/><path class="cls-1" d="M98,85.43A11.7,11.7,0,1,0,109.81,97v-.23A11.7,11.7,0,0,0,98,85.43Zm.38,16.64a5.06,5.06,0,1,1,4.94-5.17,5.06,5.06,0,0,1-4.94,5.17Z"/><path class="cls-2" d="M148.9,37.66a9.08,9.08,0,0,0-8.48-7.08l-14.24-.35h0a4.13,4.13,0,0,0-1.11,0l-4.62-.15-7.19-.2-5.85-.18-5.85-.17-21.08-.79-4.71-.15-9.91-.41c-2.92,0-6.4-.2-7.37,3.42a32.54,32.54,0,0,0-1.28,11.14l11.43.38,34.79,1.23L121,45a2.33,2.33,0,0,1,2.25,2.42h0v1.23a2.29,2.29,0,0,1-2.31,2.26h-.09L100,50.2,66.33,49.09l-8.1-.26h-.59a32.29,32.29,0,0,0,2.55,10.35h5.52l23.4.82,10.11.35a2.31,2.31,0,0,1,2.23,2.39V64a2.32,2.32,0,0,1-2.37,2.26H99l-31.46-1-4-.15v.27h0a5.14,5.14,0,0,0,.38.64,10.48,10.48,0,0,0,.91,1.55c.17.32.38.59.58.91l.91,1.28.79.88a7.57,7.57,0,0,0,1,1.08l.24.24h0a38.24,38.24,0,0,0,16.08,7,49.82,49.82,0,0,0,11.69.88h0a58.5,58.5,0,0,0,22.26-4.5c14.62-6,25.26-16.76,28.94-27.75a5.14,5.14,0,0,0,.3-.94,27.81,27.81,0,0,0,.87-3.74,21.87,21.87,0,0,0,.35-2.43A8.06,8.06,0,0,0,148.9,37.66Z"/></g></g></svg>