<svg xmlns="http://www.w3.org/2000/svg" viewBox="0 0 173.29 37.11"><title>logo</title><g id="Layer_2" data-name="Layer 2"><g id="Layer_1-2" data-name="Layer 1"><path d="M47.38,23.15a.94.94,0,0,0-.64.25l-.11.1a19.64,19.64,0,0,1-3.77,2.66h0l-.07,0A21.64,21.64,0,0,1,38.07,28c-.37.1-.74.18-1.1.25a21.44,21.44,0,0,1-2.28.34,4.66,4.66,0,0,1,2.37,1.44c.48-.1,1-.2,1.46-.33a23.6,23.6,0,0,0,9.12-4.61l.37-.32a1,1,0,0,0,.33-.74h0A1,1,0,0,0,47.38,23.15Z" style="fill:#412b2f"/><path d="M29.81,30.4a4.66,4.66,0,0,1,2.29-1.68,19.34,19.34,0,0,1-2.27-.18,17.86,17.86,0,0,1-2.36-.49,13,13,0,0,1-7.08-4.71s0,0,0,0l-.12-.16-.05-.08L20.13,23A1.35,1.35,0,0,0,20,22.8a.06.06,0,0,1,0,0,17,17,0,0,1-2.49-8.89,4.23,4.23,0,0,1,0-.46c0-.18,0-.35,0-.53a9.68,9.68,0,0,0-.13-1.61,10.13,10.13,0,0,0-.27-1.18c-.08-.23-.15-.46-.23-.68s-.12-.32-.18-.48-.18-.44-.28-.66l-.16-.33A14.37,14.37,0,0,0,4.26,0,13.93,13.93,0,0,0,2.48,0,13.79,13.79,0,0,0,.35.33,13,13,0,0,0,.1,1.85,6.9,6.9,0,0,0,0,2.69a14.37,14.37,0,0,0,9,14.17,14.15,14.15,0,0,0,4.51,1,16,16,0,0,0,2.1,0h.08l.12,0h0a17,17,0,0,0,.93,3.51,10.62,10.62,0,0,0,1.57,3.14,8.62,8.62,0,0,0,.54.69l0,.05a14.79,14.79,0,0,0,6.67,4.31,19.08,19.08,0,0,0,3.39.8ZM7.57,13.77a14.33,14.33,0,0,1-5.3-12A14.33,14.33,0,0,1,11,5.34a14.41,14.41,0,0,1,4.75,8.74s0,.08,0,.12l0,0a1.44,1.44,0,0,1-.13-.17l-.73-.64-1.39-1.18L12,11l-.73-.56a6.36,6.36,0,0,0-.2-1.9,7.49,7.49,0,0,0-.75-1.87C10.24,6.55,9.94,6,9.76,6s-.21.58-.22.7a5.62,5.62,0,0,0,.19,1.89,6.94,6.94,0,0,0,.31.95l-1-.69L7.95,8.1c-.54-.35-1-.67-1.5-1C5.67,6.68,5,6.3,4.54,6.06s-.54-.13-.14.3S5.35,7.35,6,8c.44.42.93.88,1.46,1.36l.43.38a1.5,1.5,0,0,0-.38,0l-.14,0a2.1,2.1,0,0,0-1,.49c-.07.08-.32.31-.23.53s.45.33.54.38a2,2,0,0,0,.52.12,2.75,2.75,0,0,0,.83,0,2.13,2.13,0,0,0,1.09-.51l.65.54c.48.39,1,.79,1.46,1.17s.72.55,1.08.81a4.63,4.63,0,0,0-1,.08,3.35,3.35,0,0,0-1.4.67c-.08.07-.48.36-.4.54s.62.32.74.35a4.06,4.06,0,0,0,1.65,0,3.25,3.25,0,0,0,1.4-.66,1.24,1.24,0,0,0,.15-.14l.73.51c.47.33.91.63,1.35.91l.13.08c0,.43,0,.85.09,1.27A14.3,14.3,0,0,1,7.57,13.77Z" style="fill:#412b2f"/><path d="M33.48,29.19a4,4,0,1,0,4.05,3.87A4,4,0,0,0,33.48,29.19Zm.13,5.69a1.73,1.73,0,1,1,1.69-1.77A1.73,1.73,0,0,1,33.61,34.87Z" style="fill:#412b2f"/><path d="M50.9,12.85A3.1,3.1,0,0,0,48,10.43l-4.87-.12v0h0a1.33,1.33,0,0,0-.38,0l-1.58-.05-2.46-.07-2-.06-2-.06L27.5,9.8l-1.61-.05L22.5,9.61c-1,0-2.19-.07-2.52,1.17a11.17,11.17,0,0,0-.44,3.81l3.91.13,11.9.42,6,.21a.8.8,0,0,1,.77.83l0,.42a.78.78,0,0,1-.82.77l-7.14-.23-11.5-.38-2.77-.09h-.2a11,11,0,0,0,.87,3.54l.62,0,1,0h.27l8,.28,3.46.12a.79.79,0,0,1,.76.83v.42a.79.79,0,0,1-.83.77l-10.76-.36-1.37-.05,0,.09,0,0a1.74,1.74,0,0,0,.13.22,3.52,3.52,0,0,0,.31.53c.06.11.13.2.2.31l.31.44.27.3a2.59,2.59,0,0,0,.33.37l.08.08h0a13.13,13.13,0,0,0,5.5,2.4,17.21,17.21,0,0,0,4,.3h0a20,20,0,0,0,7.61-1.54c5-2.06,8.64-5.73,9.9-9.49a1.84,1.84,0,0,0,.1-.32,9.42,9.42,0,0,0,.3-1.28,7.69,7.69,0,0,0,.12-.83A2.87,2.87,0,0,0,50.9,12.85Z" style="fill:#91a93e"/><path d="M62.82,20l5.59-5.38h4.77l-6.69,6.51,6.69,8.77H68.56l-4.74-6.2-1,.95v5.26H59.27V8.55h3.55Z" style="fill:#412b2f"/><path d="M76.42,22.52a4.35,4.35,0,0,0,.43,1.77,4.89,4.89,0,0,0,1,1.44,4.77,4.77,0,0,0,1.5,1,5,5,0,0,0,4.52-.43,4.49,4.49,0,0,0,1.65-2.09h3.88a10.24,10.24,0,0,1-1.37,3,7.87,7.87,0,0,1-2,2,7.79,7.79,0,0,1-2.35,1.12,9.49,9.49,0,0,1-2.57.35,8.1,8.1,0,0,1-3.25-.66,8.47,8.47,0,0,1-2.63-1.77,8.28,8.28,0,0,1-1.77-2.63,8.46,8.46,0,0,1,0-6.51,8.29,8.29,0,0,1,1.77-2.63,8.5,8.5,0,0,1,2.63-1.77A8.08,8.08,0,0,1,81.19,14a8.18,8.18,0,0,1,3.45.7,8,8,0,0,1,2.6,1.88,8.58,8.58,0,0,1,1.67,2.74,9.47,9.47,0,0,1,.63,3.24Zm9.14-2.38a4.77,4.77,0,0,0-1.62-2.18,4.55,4.55,0,0,0-5.44,0,4.76,4.76,0,0,0-1.62,2.18Z" style="fill:#412b2f"/><path d="M93.87,22.52a4.38,4.38,0,0,0,.43,1.77,4.88,4.88,0,0,0,1,1.44,4.77,4.77,0,0,0,1.5,1,5,5,0,0,0,4.52-.43A4.49,4.49,0,0,0,103,24.17h3.88a10.23,10.23,0,0,1-1.38,3,7.86,7.86,0,0,1-2,2,7.77,7.77,0,0,1-2.35,1.12,9.47,9.47,0,0,1-2.57.35,8.1,8.1,0,0,1-3.26-.66,8.49,8.49,0,0,1-2.63-1.77A8.28,8.28,0,0,1,91,25.53,8.45,8.45,0,0,1,91,19a8.29,8.29,0,0,1,1.77-2.63,8.52,8.52,0,0,1,2.63-1.77A8.08,8.08,0,0,1,98.64,14a8.18,8.18,0,0,1,3.45.7,8,8,0,0,1,2.6,1.88,8.58,8.58,0,0,1,1.67,2.74,9.47,9.47,0,0,1,.63,3.24ZM103,20.13a4.77,4.77,0,0,0-1.62-2.18,4.55,4.55,0,0,0-5.44,0,4.76,4.76,0,0,0-1.62,2.18Z" style="fill:#412b2f"/><path d="M112.23,20l5.59-5.38h4.77l-6.69,6.51,6.69,8.77H118l-4.74-6.2-1,.95v5.26h-3.58V8.55h3.54Z" style="fill:#412b2f"/><path d="M122.44,22.27A8.08,8.08,0,0,1,123.1,19a8.29,8.29,0,0,1,1.79-2.63,8.62,8.62,0,0,1,2.64-1.77,8.39,8.39,0,0,1,6.51,0,8.3,8.3,0,0,1,4.4,4.4,8.08,8.08,0,0,1,.66,3.25v7.67h-3.54v-.86a8,8,0,0,1-4.77,1.5,8.86,8.86,0,0,1-3.44-.64,7.66,7.66,0,0,1-2.63-1.77A8,8,0,0,1,123,25.53,8.8,8.8,0,0,1,122.44,22.27Zm3.54,0a4.54,4.54,0,0,0,.38,1.85,4.83,4.83,0,0,0,2.54,2.54,4.58,4.58,0,0,0,1.86.38,4.92,4.92,0,0,0,1.85-.35,4.5,4.5,0,0,0,1.52-1,4.88,4.88,0,0,0,1-1.51,4.68,4.68,0,0,0,.38-1.91,4.54,4.54,0,0,0-.38-1.85,4.83,4.83,0,0,0-2.54-2.54,4.69,4.69,0,0,0-3.71,0,4.83,4.83,0,0,0-2.54,2.54A4.54,4.54,0,0,0,126,22.27Z" style="fill:#412b2f"/><path d="M141.08,22.3a8.33,8.33,0,0,1,.64-3.28,8.1,8.1,0,0,1,1.77-2.63,8.38,8.38,0,0,1,2.64-1.76,8.24,8.24,0,0,1,3.25-.64,8.08,8.08,0,0,1,3.25.66,8.31,8.31,0,0,1,4.4,4.4,8.39,8.39,0,0,1,0,6.51,8.31,8.31,0,0,1-4.4,4.4,8.08,8.08,0,0,1-3.25.66,7.06,7.06,0,0,1-2.64-.53,6.88,6.88,0,0,1-2.12-1.27V36h-3.54Zm3.54,0a4.55,4.55,0,0,0,.38,1.85,4.83,4.83,0,0,0,2.54,2.54,4.66,4.66,0,0,0,3.7,0,4.83,4.83,0,0,0,2.54-2.54,4.67,4.67,0,0,0,0-3.7,4.83,4.83,0,0,0-2.54-2.54,4.67,4.67,0,0,0-3.7,0A4.83,4.83,0,0,0,145,20.46,4.55,4.55,0,0,0,144.63,22.3Z" style="fill:#412b2f"/><path d="M169.75,14.66h3.54v9a6.61,6.61,0,0,1-.55,2.69,7.49,7.49,0,0,1-1.48,2.22,6.81,6.81,0,0,1-4.91,2.06,6.61,6.61,0,0,1-2.69-.55,7.2,7.2,0,0,1-3.73-3.74,6.72,6.72,0,0,1-.55-2.7V14.66h3.54v9a3.17,3.17,0,0,0,.28,1.31,3.56,3.56,0,0,0,.73,1.07,3.31,3.31,0,0,0,1.08.72,3.43,3.43,0,0,0,1.33.26,3.36,3.36,0,0,0,1.3-.26,3.32,3.32,0,0,0,1.08-.72,3.56,3.56,0,0,0,.73-1.07,3.17,3.17,0,0,0,.28-1.31Z" style="fill:#412b2f"/></g></g></svg>