<svg xmlns="http://www.w3.org/2000/svg" viewBox="0 0 512 359.96"><defs><style>.cls-1{fill:#efe2c7;}.cls-1,.cls-2{fill-rule:evenodd;}.cls-2{fill:#f8f8f8;}.cls-3{fill:#412b2f;}</style></defs><title>meats</title><g id="Layer_2" data-name="Layer 2"><g id="Layer_1-2" data-name="Layer 1"><path class="cls-1" d="M66.09,96c40-49.87,143.25-49.4,200.15-42.53,48.49,5.86,102.61,19.37,146.31,41.6,14,7.14,25.46,12.3,36.43,23.76,36.48,38.11-47.54,62-71.05,64.53-32,3.4-61.34,11.42-90.86,24-21.12,9-41.15,20-62.14,29.11C205,245,186.84,250,165,250,106.69,250,50,208,50,146.7,50,128.08,54.3,110.69,66.09,96Z"/><path class="cls-1" d="M266.24,53.45C209.34,46.58,106.05,46.11,66.09,96,54.3,110.69,50,128.08,50,146.7,50,208,106.69,250,165,250c21.84,0,40-5,59.93-13.56,21-9.06,41-20.14,62.14-29.11,29.52-12.54,58.89-20.56,90.86-24,23.51-2.49,107.53-26.42,71.05-64.53-11-11.46-22.39-16.62-36.43-23.76C368.85,72.82,314.73,59.31,266.24,53.45ZM164.5,148.93c20.16,0,36.5,9.85,36.5,22s-16.34,22-36.5,22-36.5-9.85-36.5-22S144.34,148.93,164.5,148.93Z"/><path class="cls-2" d="M201,170.93c0-12.15-16.34-22-36.5-22s-36.5,9.85-36.5,22,16.34,22,36.5,22S201,183.08,201,170.93Z"/><path class="cls-1" d="M382.15,223.12C282.91,233.66,248.62,290,165,290,79.41,290,10,225.81,10,146.7v60C10,285.82,79.41,350,165,350c83.62,0,117.91-56.3,217.15-66.85C451.75,275.73,502,247.07,502,196.37v-60C502,187.06,451.75,215.73,382.15,223.12Z"/><path class="cls-3" d="M421.19,43.76A10,10,0,1,0,412.94,62C463.18,84.73,492,111.84,492,136.36c0,58.69-77.56,73.26-110.91,76.81-50.47,5.36-85.31,22.43-116,37.5C233,266.39,205.25,280,165,280,85.05,280,20,220.17,20,146.69,20,110.23,33.56,81,60.3,59.8,124.06,9.28,245.09,14.45,329.36,34.24a10,10,0,0,0,4.58-19.48C281.5,2.46,226.27-2.4,178.41,1.11c-55,4-100.1,18.9-130.53,43C16.11,69.3,0,103.81,0,146.69v60C0,291.21,74,360,165,360c44.89,0,75.95-15.22,108.84-31.33,30.68-15,62.41-30.58,109.37-35.57,37.33-4,68.65-13.93,90.58-28.81,25-17,38.21-40.43,38.21-67.89v-60C512,103.16,479.75,70.27,421.19,43.76ZM492,196.36c0,58.69-77.56,73.27-110.91,76.81-50.47,5.36-85.31,22.43-116,37.5C233,326.39,205.25,340,165,340,90.39,340,28.77,287.89,20.86,221.21,49.1,268.15,103.12,300,165,300c44.89,0,75.95-15.22,108.84-31.34,30.68-15,62.41-30.57,109.36-35.56,37.34-4,68.66-13.93,90.59-28.81A98.35,98.35,0,0,0,492,188.51Z"/><path class="cls-3" d="M153,259.42c4,.36,8,.54,12,.54,21.43,0,40.54-4.3,63.89-14.38,10.41-4.49,20.66-9.5,30.56-14.35,10.28-5,20.91-10.23,31.53-14.73a304.18,304.18,0,0,1,88-23.22c12.06-1.28,75.73-14.42,87.26-45.95,3-8.24,3.72-21.07-10-35.44-11.14-11.64-22.88-17.57-35.31-23.84l-3.8-1.92c-40.8-20.75-93.95-35.89-149.65-42.62-21.74-2.62-64.81-6.11-109,0C111.31,50.06,77.61,65.6,58.29,89.72,46,105.07,40,123.71,40,146.69a104.78,104.78,0,0,0,25.84,69,10,10,0,1,0,15.17-13,85,85,0,0,1-21-56c0-18.26,4.54-32.8,13.89-44.46,16-20,45.4-33.09,87.29-38.89,43.52-6,87.13-2,103.86,0C318.48,69.82,369.25,84.24,408,104l3.86,2c11.79,6,21.11,10.64,29.87,19.8,8,8.39,6.35,13,5.71,14.75-5.91,16.16-49.68,30.71-70.59,32.93-31.92,3.39-62.57,11.47-93.71,24.7-11.11,4.71-22,10-32.5,15.17-9.69,4.75-19.72,9.65-29.69,14-20.7,8.93-37.44,12.74-56,12.74-3.36,0-6.78-.16-10.17-.46A10,10,0,1,0,153,259.42Z"/><path class="cls-3" d="M164.5,202.92c26.08,0,46.5-14,46.5-32s-20.42-32-46.5-32S118,153,118,170.92,138.43,202.92,164.5,202.92Zm0-44c15.93,0,26.5,7.22,26.5,12s-10.57,12-26.5,12-26.5-7.22-26.5-12S148.57,158.92,164.5,158.92Z"/><path class="cls-3" d="M113.77,227.89h0A10,10,0,1,0,119,241,10,10,0,0,0,113.76,227.89Z"/><path class="cls-3" d="M372.3,46.24A10,10,0,0,0,377.8,27h0a10,10,0,0,0-5.49,19.23Z"/></g></g></svg>