<svg xmlns="http://www.w3.org/2000/svg" viewBox="0 0 38.06 38.06"><title>package</title><g id="Layer_2" data-name="Layer 2"><g id="Layer_1-2" data-name="Layer 1"><rect width="38.06" height="38.06" style="fill:none"/><path d="M29.69,13.27a.61.61,0,0,0-.06-.26.57.57,0,0,0-.4-.31l-10-4.83a.59.59,0,0,0-.51,0L8.7,12.74a.59.59,0,0,0-.33.51V25.51A.58.58,0,0,0,8.7,26l10.06,4.88h0l0,0h.41l0,0h0L29.37,26a.59.59,0,0,0,.33-.53V13.28ZM19,9l8.73,4.23-3.21,1.56L15.8,10.6Zm0,8.46-8.73-4.23,4.17-2,8.73,4.23ZM9.54,14.21l8.89,4.31V29.45L9.54,25.14ZM19.6,29.45V18.52l4.17-2v2.86a.59.59,0,0,0,1.17,0V15.93l3.57-1.73V25.12Zm0,0" style="fill:#465902"/></g></g></svg>