<svg xmlns="http://www.w3.org/2000/svg" viewBox="0 0 322.22 50.07"><title>payments</title><g id="Layer_2" data-name="Layer 2"><g id="Layer_1-2" data-name="Layer 1"><path d="M28.41,9.42h7.67a4.45,4.45,0,0,1,4.43,4.43V26.61A4.45,4.45,0,0,1,36.07,31H28.41A4.45,4.45,0,0,1,24,26.61V13.86a4.45,4.45,0,0,1,4.43-4.43Z" style="fill:#fff;fill-rule:evenodd"/><path d="M38.85,50.07H25.64a3.52,3.52,0,0,1-3.51-3.51V7.85a3.52,3.52,0,0,1,3.51-3.51H38.85a3.5,3.5,0,0,1,.46,0V1.52A1.53,1.53,0,0,1,40.83,0h0a1.53,1.53,0,0,1,1.52,1.52v4.8a1.51,1.51,0,0,1-.12.6,3.48,3.48,0,0,1,.12.92V46.56a3.52,3.52,0,0,1-3.51,3.51ZM28.41,9.42h7.67a4.45,4.45,0,0,1,4.43,4.43V26.61A4.45,4.45,0,0,1,36.07,31H28.41A4.45,4.45,0,0,1,24,26.61V13.86a4.45,4.45,0,0,1,4.43-4.43Z" style="fill:#d1e187;fill-rule:evenodd"/><path d="M45.46,10.23l8.43,0c3.07.39,4.49,2.69,4.36,6s-2.15,5-5.34,5.31l-3.06-.06.09,9.25H45.46V10.23ZM50,12.34c2.08-.3,3.68.28,3.79,3.56-.07,2.93-1.62,3.67-3.79,3.51V12.34Z" style="fill:#8bc53f;fill-rule:evenodd"/><path d="M66.09,10l5.34,0,0,2.29-4.18,0c-2.41.45-1.87,3-2,4.88L70.84,17l0,2.81-5.45-.06,0,6.81a2.73,2.73,0,0,0,2.71,2.76l3,0,.91,0,0,2.13-.94,0-5.69-.06c-2-.07-3.54-1-4.27-4.06l-.14-13.21c.08-2.71,1.87-4,5.15-4.16Z" style="fill:#8bc53f;fill-rule:evenodd"/><path d="M73.39,15.78C73,11.35,75.51,10.35,78.51,10c3.51-.21,5.71,1.26,6.14,5H80.51c-.26-1.88-1.73-2.61-3.07-1.71-1.91,2.34,4.05,6.45,5.84,8,3.09,2.44,2.57,9.22-2.19,10.48l-2.9.1c-2.95.07-4.7-1.79-5.21-5.25l4.17-.07c.23,1.47.86,2.39,2.19,2.33,2.08-.39,2.65-2.22,1.17-4.56-3.09-2.63-6.76-5.09-7.13-8.5Z" style="fill:#8bc53f;fill-rule:evenodd"/><path d="M0,9.31H4.39l0,1.36c2.65-1.15,4.65-2,6.74-.07,3.74-1.77,6.58-1.57,8,1.72l.2,18.42H14.93V13.17c-.33-1.5-1.52-1.76-3-1.66V30.74H7.45V13.17c-.33-1.5-1.52-1.76-3-1.66V30.74H0V9.31Z" style="fill:#8bc53f;fill-rule:evenodd"/><path d="M87.12,31.28h4.55V20h3.79V31.28h4.41V15.12c-.09-3.29-2.61-5.34-6.19-5.36-4.08,0-6.41,1.9-6.56,5.17V31.28ZM91.67,14c.15-1.21.54-1.69,1.87-1.82,1.35,0,1.83.81,1.92,2v3.28H91.67V14Z" style="fill:#8bc53f;fill-rule:evenodd"/><path d="M27.51,18c.76,1.77,1.79,2.59,3,2.64a17.56,17.56,0,0,1-6.26,2.91,19.93,19.93,0,0,1-4-.79A10.3,10.3,0,0,0,27.51,18Z" style="fill:#81211c;stroke:#cc8b5d;stroke-miterlimit:2.6131300000000004;stroke-width:0.25px;fill-rule:evenodd"/><path d="M36,13.48l9.15,4.62c-4.66,6.13-12.51,6.29-20.88,5.5A16.48,16.48,0,0,0,36,13.48Z" style="fill:#eb2026;stroke:#cc8b5d;stroke-miterlimit:2.6131300000000004;stroke-width:0.25px;fill-rule:evenodd"/><polygon points="303.66 38.43 304.61 38.4 305.56 38.33 306.48 38.21 307.4 38.05 308.3 37.84 309.18 37.59 310.04 37.3 310.88 36.97 311.71 36.59 312.51 36.19 313.29 35.74 314.04 35.26 314.77 34.74 315.47 34.19 316.14 33.61 316.79 32.99 317.4 32.34 317.99 31.67 318.54 30.97 319.06 30.24 319.54 29.49 319.99 28.71 320.39 27.91 320.77 27.09 321.1 26.24 321.39 25.38 321.64 24.5 321.85 23.6 322.01 22.68 322.13 21.76 322.2 20.82 322.23 19.86 322.2 18.91 322.13 17.97 322.01 17.05 321.85 16.14 321.64 15.24 321.39 14.37 321.1 13.51 320.77 12.67 320.39 11.85 319.99 11.05 319.54 10.28 319.06 9.52 318.54 8.8 317.99 8.11 317.4 7.43 316.79 6.79 316.14 6.17 315.47 5.59 314.77 5.04 314.04 4.52 313.29 4.04 312.51 3.6 311.71 3.19 310.88 2.82 310.04 2.48 309.18 2.19 308.3 1.94 307.4 1.73 306.48 1.57 305.56 1.45 304.61 1.38 303.66 1.36 302.71 1.38 301.76 1.45 300.84 1.57 299.92 1.73 299.03 1.94 298.15 2.19 297.29 2.48 296.45 2.82 295.63 3.19 294.83 3.6 294.06 4.04 293.31 4.52 292.58 5.04 291.88 5.59 291.21 6.17 290.57 6.79 289.96 7.43 289.38 8.11 288.83 8.8 288.31 9.52 287.83 10.28 287.39 11.05 286.98 11.85 286.61 12.67 286.28 13.51 285.99 14.37 285.74 15.24 285.53 16.14 285.37 17.05 285.25 17.97 285.18 18.91 285.16 19.86 285.18 20.82 285.25 21.76 285.37 22.68 285.53 23.6 285.74 24.5 285.99 25.38 286.28 26.24 286.61 27.09 286.98 27.91 287.39 28.71 287.83 29.49 288.31 30.24 288.83 30.97 289.38 31.67 289.96 32.34 290.57 32.99 291.21 33.61 291.88 34.19 292.58 34.74 293.31 35.26 294.06 35.74 294.83 36.19 295.63 36.59 296.45 36.97 297.29 37.3 298.15 37.59 299.03 37.84 299.92 38.05 300.84 38.21 301.76 38.33 302.71 38.4 303.66 38.43 303.66 38.43 303.66 38.43" style="fill:#fbb231;fill-rule:evenodd"/><polygon points="278.86 38.43 279.81 38.4 280.76 38.33 281.68 38.21 282.59 38.05 283.49 37.84 284.37 37.59 285.23 37.3 286.07 36.97 286.89 36.59 287.68 36.19 288.46 35.74 289.21 35.26 289.93 34.74 290.63 34.19 291.3 33.61 291.95 32.99 292.56 32.34 293.14 31.67 293.69 30.97 294.2 30.24 294.69 29.49 295.13 28.71 295.54 27.91 295.91 27.09 296.24 26.24 296.53 25.38 296.78 24.5 296.99 23.6 297.15 22.68 297.27 21.76 297.34 20.82 297.36 19.86 297.34 18.91 297.27 17.97 297.15 17.05 296.99 16.14 296.78 15.24 296.53 14.37 296.24 13.51 295.91 12.67 295.54 11.85 295.13 11.05 294.69 10.28 294.2 9.52 293.69 8.8 293.14 8.11 292.56 7.43 291.95 6.79 291.3 6.17 290.63 5.59 289.93 5.04 289.21 4.52 288.46 4.04 287.68 3.6 286.89 3.19 286.07 2.82 285.23 2.48 284.37 2.19 283.49 1.94 282.59 1.73 281.68 1.57 280.76 1.45 279.81 1.38 278.86 1.36 277.9 1.38 276.96 1.45 276.04 1.57 275.12 1.73 274.22 1.94 273.34 2.19 272.48 2.48 271.63 2.82 270.81 3.19 270.01 3.6 269.23 4.04 268.48 4.52 267.75 5.04 267.05 5.59 266.38 6.17 265.73 6.79 265.11 7.43 264.53 8.11 263.98 8.8 263.46 9.52 262.98 10.28 262.53 11.05 262.13 11.85 261.75 12.67 261.42 13.51 261.13 14.37 260.88 15.24 260.67 16.14 260.51 17.05 260.39 17.97 260.32 18.91 260.29 19.86 260.32 20.82 260.39 21.76 260.51 22.68 260.67 23.6 260.88 24.5 261.13 25.38 261.42 26.24 261.75 27.09 262.13 27.91 262.53 28.71 262.98 29.49 263.46 30.24 263.98 30.97 264.53 31.67 265.11 32.34 265.73 32.99 266.38 33.61 267.05 34.19 267.75 34.74 268.48 35.26 269.23 35.74 270.01 36.19 270.81 36.59 271.63 36.97 272.48 37.3 273.34 37.59 274.22 37.84 275.12 38.05 276.04 38.21 276.96 38.33 277.9 38.4 278.86 38.43 278.86 38.43 278.86 38.43" style="fill:#ec1b2e;fill-rule:evenodd"/><polygon points="289.09 8.47 298.94 8.47 298.94 7.46 289.94 7.46 289.09 8.47 289.09 8.47 289.09 8.47" style="fill:#fbb231;fill-rule:evenodd"/><polygon points="287.61 10.71 298.94 10.71 298.94 9.7 288.21 9.7 287.61 10.71 287.61 10.71 287.61 10.71" style="fill:#fbb231;fill-rule:evenodd"/><polygon points="286.51 12.94 298.94 12.94 298.94 11.93 286.95 11.93 286.51 12.94 286.51 12.94 286.51 12.94" style="fill:#fbb231;fill-rule:evenodd"/><polygon points="285.76 15.18 298.94 15.18 298.94 14.17 286.07 14.17 285.76 15.18 285.76 15.18 285.76 15.18" style="fill:#fbb231;fill-rule:evenodd"/><polygon points="286.19 25.99 298.97 25.99 298.97 24.98 285.88 24.98 286.19 25.99 286.19 25.99 286.19 25.99" style="fill:#fbb231;fill-rule:evenodd"/><polygon points="287.14 28.23 298.97 28.23 298.97 27.22 286.67 27.22 287.14 28.23 287.14 28.23 287.14 28.23" style="fill:#fbb231;fill-rule:evenodd"/><polygon points="288.46 30.46 298.97 30.46 298.97 29.45 287.83 29.45 288.46 30.46 288.46 30.46 288.46 30.46" style="fill:#fbb231;fill-rule:evenodd"/><polygon points="290.29 32.7 298.97 32.7 298.97 31.69 289.41 31.69 290.29 32.7 290.29 32.7 290.29 32.7" style="fill:#fbb231;fill-rule:evenodd"/><polygon points="285.31 17.41 298.94 17.41 298.94 16.4 285.51 16.4 285.31 17.41 285.31 17.41 285.31 17.41" style="fill:#fbb231;fill-rule:evenodd"/><polygon points="293.62 23.76 298.81 23.76 298.81 22.75 293.8 22.75 293.62 23.76 293.62 23.76 293.62 23.76" style="fill:#fbb231;fill-rule:evenodd"/><polygon points="294.03 21.53 298.81 21.53 298.81 20.52 294.22 20.52 294.03 21.53 294.03 21.53 294.03 21.53" style="fill:#fbb231;fill-rule:evenodd"/><polygon points="284.97 20.52 286.32 20.52 286.32 21.53 285.03 21.53 284.97 20.52 284.97 20.52 284.97 20.52" style="fill:#fbb231;fill-rule:evenodd"/><polygon points="282.45 19.3 282.36 19.29 282.27 19.28 282.19 19.27 282.11 19.25 282.04 19.24 281.96 19.23 281.88 19.21 281.79 19.2 281.7 19.19 281.6 19.18 281.49 19.18 281.37 19.17 281.24 19.17 281.09 19.18 280.93 19.19 280.75 19.2 280.62 19.22 280.51 19.24 280.4 19.28 280.31 19.32 280.22 19.36 280.14 19.41 280.07 19.47 280.02 19.53 279.98 19.6 279.95 19.66 279.94 19.74 279.94 19.82 279.96 19.9 279.98 19.98 280.03 20.06 280.09 20.14 280.22 20.26 280.37 20.35 280.54 20.43 280.73 20.5 280.93 20.57 281.14 20.63 281.34 20.71 281.54 20.79 281.73 20.9 281.91 21.03 282.06 21.18 282.19 21.38 282.29 21.61 282.36 21.9 282.38 22.23 282.36 22.63 282.31 22.92 282.24 23.18 282.14 23.42 282.01 23.62 281.87 23.8 281.71 23.96 281.53 24.1 281.34 24.22 281.14 24.31 280.93 24.39 280.72 24.45 280.5 24.5 280.29 24.54 280.08 24.56 279.87 24.57 279.68 24.58 279.41 24.58 279.16 24.57 278.94 24.57 278.74 24.57 278.55 24.56 278.38 24.55 278.23 24.54 278.09 24.52 277.95 24.5 277.84 24.48 277.72 24.46 277.61 24.43 277.5 24.4 277.4 24.37 277.31 24.33 277.2 24.29 277.48 22.91 277.54 22.92 277.61 22.94 277.69 22.97 277.8 22.99 277.91 23.02 278.04 23.04 278.17 23.07 278.32 23.1 278.48 23.12 278.64 23.15 278.81 23.17 278.99 23.18 279.17 23.19 279.35 23.2 279.53 23.2 279.71 23.19 279.89 23.15 280.04 23.1 280.15 23.03 280.24 22.95 280.3 22.86 280.35 22.76 280.38 22.66 280.41 22.57 280.42 22.38 280.36 22.23 280.26 22.1 280.1 22 279.91 21.9 279.69 21.81 279.45 21.72 279.2 21.62 278.95 21.51 278.72 21.38 278.5 21.21 278.3 21.02 278.14 20.78 278.03 20.5 277.97 20.16 277.98 19.77 278.01 19.52 278.06 19.29 278.12 19.08 278.19 18.88 278.29 18.69 278.4 18.53 278.54 18.37 278.69 18.23 278.87 18.11 279.07 18.01 279.3 17.92 279.55 17.85 279.83 17.8 280.14 17.75 280.47 17.73 280.84 17.72 281.07 17.72 281.29 17.73 281.48 17.73 281.66 17.74 281.81 17.75 281.96 17.76 282.08 17.78 282.19 17.79 282.3 17.8 282.39 17.82 282.47 17.83 282.54 17.84 282.61 17.86 282.66 17.86 282.72 17.88 282.77 17.88 282.45 19.3 282.45 19.3 282.45 19.3" style="fill:#fff;fill-rule:evenodd"/><polyline points="282.45 19.3 282.45 19.3 282.36 19.29 282.27 19.28 282.19 19.27 282.11 19.25 282.04 19.24 281.96 19.23 281.88 19.21 281.79 19.2 281.7 19.19 281.6 19.18 281.49 19.18 281.37 19.17 281.24 19.17 281.09 19.18 280.93 19.19 280.75 19.2 280.75 19.2 280.62 19.22 280.51 19.24 280.4 19.28 280.31 19.32 280.22 19.36 280.14 19.41 280.07 19.47 280.02 19.53 279.98 19.6 279.95 19.66 279.94 19.74 279.94 19.82 279.96 19.9 279.98 19.98 280.03 20.06 280.09 20.14 280.09 20.14 280.22 20.26 280.37 20.35 280.54 20.43 280.73 20.5 280.93 20.57 281.14 20.63 281.34 20.71 281.54 20.79 281.73 20.9 281.91 21.03 282.06 21.18 282.19 21.38 282.29 21.61 282.36 21.9 282.38 22.23 282.36 22.63 282.36 22.63 282.31 22.92 282.24 23.18 282.14 23.42 282.01 23.62 281.87 23.8 281.71 23.96 281.53 24.1 281.34 24.22 281.14 24.31 280.93 24.39 280.72 24.45 280.5 24.5 280.29 24.54 280.08 24.56 279.87 24.57 279.68 24.58 279.68 24.58 279.41 24.58 279.16 24.57 278.94 24.57 278.74 24.57 278.55 24.56 278.38 24.55 278.23 24.54 278.09 24.52 277.95 24.5 277.84 24.48 277.72 24.46 277.61 24.43 277.5 24.4 277.4 24.37 277.31 24.33 277.2 24.29 277.48 22.91 277.48 22.91 277.54 22.92 277.61 22.94 277.69 22.97 277.8 22.99 277.91 23.02 278.04 23.04 278.17 23.07 278.32 23.1 278.48 23.12 278.64 23.15 278.81 23.17 278.99 23.18 279.17 23.19 279.35 23.2 279.53 23.2 279.71 23.19 279.71 23.19 279.89 23.15 280.04 23.1 280.15 23.03 280.24 22.95 280.3 22.86 280.35 22.76 280.38 22.66 280.41 22.57 280.41 22.57 280.42 22.38 280.36 22.23 280.26 22.1 280.1 22 279.91 21.9 279.69 21.81 279.45 21.72 279.2 21.62 278.95 21.51 278.72 21.38 278.5 21.21 278.3 21.02 278.14 20.78 278.03 20.5 277.97 20.16 277.98 19.77 277.98 19.77 278.01 19.52 278.06 19.29 278.12 19.08 278.19 18.88 278.29 18.69 278.4 18.53 278.54 18.37 278.69 18.23 278.87 18.11 279.07 18.01 279.3 17.92 279.55 17.85 279.83 17.8 280.14 17.75 280.47 17.73 280.84 17.72 280.84 17.72 281.07 17.72 281.29 17.73 281.48 17.73 281.66 17.74 281.81 17.75 281.96 17.76 282.08 17.78 282.19 17.79 282.3 17.8 282.39 17.82 282.47 17.83 282.54 17.84 282.61 17.86 282.66 17.86 282.72 17.88 282.77 17.88 282.45 19.3" style="fill:none;stroke:#fff;stroke-miterlimit:2.613100051879883;stroke-width:0.2160000056028366px"/><polygon points="283.93 16.34 285.66 16.34 285.41 17.85 286.45 17.85 286.23 19.27 285.13 19.23 284.53 22.72 284.52 22.85 284.55 22.95 284.61 23.03 284.69 23.1 284.81 23.15 284.93 23.18 285.07 23.21 285.22 23.22 285.36 23.22 285.48 23.2 285.6 23.18 285.69 23.16 285.78 23.13 285.83 23.12 285.87 23.1 285.88 23.1 285.66 24.26 285.62 24.29 285.58 24.32 285.53 24.34 285.49 24.37 285.44 24.39 285.39 24.4 285.34 24.42 285.28 24.44 285.22 24.46 285.16 24.47 285.08 24.48 285.01 24.5 284.93 24.51 284.83 24.52 284.73 24.54 284.63 24.55 284.15 24.55 283.9 24.53 283.68 24.5 283.48 24.47 283.31 24.42 283.17 24.37 283.05 24.3 282.94 24.23 282.86 24.15 282.8 24.06 282.76 23.95 282.73 23.85 282.71 23.73 282.7 23.6 282.7 23.46 282.72 23.32 282.74 23.16 283.93 16.34 283.93 16.34 283.93 16.34" style="fill:#fff;fill-rule:evenodd"/><polyline points="283.93 16.34 285.66 16.34 285.41 17.85 286.45 17.85 286.23 19.27 285.13 19.23 284.53 22.72 284.53 22.72 284.52 22.85 284.55 22.95 284.61 23.03 284.69 23.1 284.81 23.15 284.93 23.18 285.07 23.21 285.22 23.22 285.22 23.22 285.36 23.22 285.48 23.2 285.6 23.18 285.69 23.16 285.78 23.13 285.83 23.12 285.87 23.1 285.88 23.1 285.66 24.26 285.66 24.26 285.62 24.29 285.58 24.32 285.53 24.34 285.49 24.37 285.44 24.39 285.39 24.4 285.34 24.42 285.28 24.44 285.22 24.46 285.16 24.47 285.08 24.48 285.01 24.5 284.93 24.51 284.83 24.52 284.73 24.54 284.63 24.55 284.15 24.55 284.15 24.55 283.9 24.53 283.68 24.5 283.48 24.47 283.31 24.42 283.17 24.37 283.05 24.3 282.94 24.23 282.86 24.15 282.8 24.06 282.76 23.95 282.73 23.85 282.71 23.73 282.7 23.6 282.7 23.46 282.72 23.32 282.74 23.16 283.93 16.34" style="fill:none;stroke:#fff;stroke-miterlimit:2.613100051879883;stroke-width:0.2160000056028366px"/><polygon points="287.83 21.62 287.81 21.73 287.81 21.84 287.82 21.96 287.85 22.08 287.89 22.2 287.94 22.31 288.01 22.43 288.08 22.53 288.17 22.64 288.26 22.73 288.36 22.83 288.48 22.9 288.59 22.97 288.71 23.03 288.84 23.07 288.96 23.1 289.13 23.12 289.28 23.14 289.45 23.16 289.61 23.17 289.77 23.18 289.94 23.18 290.1 23.17 290.27 23.16 290.44 23.13 290.61 23.1 290.78 23.07 290.95 23.01 291.13 22.94 291.31 22.87 291.48 22.77 291.67 22.66 291.42 24.2 291.31 24.25 291.21 24.3 291.12 24.34 291.02 24.37 290.93 24.4 290.83 24.43 290.73 24.46 290.62 24.48 290.51 24.5 290.38 24.51 290.25 24.52 290.11 24.54 289.95 24.54 289.78 24.54 289.58 24.55 289.38 24.55 289.07 24.54 288.76 24.51 288.45 24.47 288.13 24.39 287.83 24.3 287.53 24.18 287.25 24.02 286.99 23.84 286.75 23.63 286.53 23.37 286.35 23.08 286.2 22.75 286.1 22.38 286.03 21.96 286.01 21.5 286.04 20.99 286.06 20.79 286.1 20.56 286.15 20.32 286.22 20.05 286.31 19.78 286.43 19.52 286.57 19.24 286.75 18.98 286.94 18.73 287.19 18.49 287.46 18.28 287.78 18.09 288.14 17.93 288.55 17.82 289 17.75 289.5 17.72 289.75 17.73 290 17.75 290.26 17.8 290.51 17.86 290.76 17.95 291.01 18.06 291.23 18.21 291.44 18.39 291.63 18.6 291.78 18.85 291.91 19.14 292 19.47 292.05 19.85 292.05 20.27 292.01 20.75 291.92 21.27 291.88 21.65 287.33 21.65 287.61 20.42 290.35 20.42 290.37 20.27 290.36 20.11 290.35 19.98 290.32 19.85 290.28 19.73 290.23 19.63 290.17 19.53 290.11 19.45 290.03 19.37 289.95 19.31 289.86 19.25 289.76 19.2 289.67 19.16 289.56 19.14 289.46 19.12 289.35 19.11 289.23 19.11 289.12 19.13 289.01 19.16 288.9 19.2 288.8 19.25 288.7 19.3 288.61 19.37 288.53 19.45 288.45 19.53 288.37 19.63 288.3 19.73 288.25 19.83 288.19 19.95 288.15 20.07 288.11 20.2 288.08 20.33 287.83 21.62 287.83 21.62 287.83 21.62" style="fill:#fff;fill-rule:evenodd"/><polyline points="287.83 21.62 287.83 21.62 287.81 21.73 287.81 21.84 287.82 21.96 287.85 22.08 287.89 22.2 287.94 22.31 288.01 22.43 288.08 22.53 288.17 22.64 288.26 22.73 288.36 22.83 288.48 22.9 288.59 22.97 288.71 23.03 288.84 23.07 288.96 23.1 288.96 23.1 289.13 23.12 289.28 23.14 289.45 23.16 289.61 23.17 289.77 23.18 289.94 23.18 290.1 23.17 290.27 23.16 290.44 23.13 290.61 23.1 290.78 23.07 290.95 23.01 291.13 22.94 291.31 22.87 291.48 22.77 291.67 22.66 291.42 24.2 291.42 24.2 291.31 24.25 291.21 24.3 291.12 24.34 291.02 24.37 290.93 24.4 290.83 24.43 290.73 24.46 290.62 24.48 290.51 24.5 290.38 24.51 290.25 24.52 290.11 24.54 289.95 24.54 289.78 24.54 289.58 24.55 289.38 24.55 289.38 24.55 289.07 24.54 288.76 24.51 288.45 24.47 288.13 24.39 287.83 24.3 287.53 24.18 287.25 24.02 286.99 23.84 286.75 23.63 286.53 23.37 286.35 23.08 286.2 22.75 286.1 22.38 286.03 21.96 286.01 21.5 286.04 20.99 286.04 20.99 286.06 20.79 286.1 20.56 286.15 20.32 286.22 20.05 286.31 19.78 286.43 19.52 286.57 19.24 286.75 18.98 286.94 18.73 287.19 18.49 287.46 18.28 287.78 18.09 288.14 17.93 288.55 17.82 289 17.75 289.5 17.72 289.5 17.72 289.75 17.73 290 17.75 290.26 17.8 290.51 17.86 290.76 17.95 291.01 18.06 291.23 18.21 291.44 18.39 291.63 18.6 291.78 18.85 291.91 19.14 292 19.47 292.05 19.85 292.05 20.27 292.01 20.75 291.92 21.27 291.88 21.65 287.33 21.65 287.61 20.42 290.35 20.42 290.35 20.42 290.37 20.27 290.36 20.11 290.35 19.98 290.32 19.85 290.28 19.73 290.23 19.63 290.17 19.53 290.11 19.45 290.03 19.37 289.95 19.31 289.86 19.25 289.76 19.2 289.67 19.16 289.56 19.14 289.46 19.12 289.35 19.11 289.35 19.11 289.23 19.11 289.12 19.13 289.01 19.16 288.9 19.2 288.8 19.25 288.7 19.3 288.61 19.37 288.53 19.45 288.45 19.53 288.37 19.63 288.3 19.73 288.25 19.83 288.19 19.95 288.15 20.07 288.11 20.2 288.08 20.33 287.83 21.62" style="fill:none;stroke:#fff;stroke-miterlimit:2.613100051879883;stroke-width:0.2160000056028366px"/><polygon points="302.74 18.23 302.66 18.18 302.58 18.14 302.49 18.1 302.4 18.06 302.31 18.02 302.2 17.98 302.09 17.95 301.98 17.91 301.86 17.88 301.74 17.85 301.61 17.83 301.48 17.81 301.34 17.8 301.19 17.78 301.04 17.78 300.89 17.78 300.73 17.78 300.57 17.8 300.4 17.81 300.22 17.84 300.05 17.89 299.87 17.96 299.7 18.05 299.52 18.16 299.36 18.3 299.19 18.46 299.04 18.66 298.89 18.9 298.75 19.17 298.62 19.48 298.5 19.83 298.4 20.23 298.36 20.46 298.34 20.68 298.32 20.9 298.33 21.11 298.35 21.32 298.39 21.52 298.45 21.71 298.52 21.9 298.61 22.07 298.72 22.23 298.86 22.37 299 22.5 299.17 22.61 299.37 22.71 299.58 22.79 299.82 22.85 299.9 22.87 299.99 22.88 300.11 22.9 300.23 22.91 300.37 22.92 300.51 22.92 300.67 22.92 300.82 22.91 300.99 22.89 301.15 22.86 301.31 22.82 301.46 22.77 301.62 22.7 301.76 22.61 301.89 22.52 302.02 22.4 301.74 24.07 301.7 24.1 301.66 24.14 301.61 24.18 301.56 24.22 301.49 24.27 301.4 24.32 301.3 24.36 301.19 24.4 301.04 24.44 300.88 24.47 300.69 24.5 300.47 24.52 300.23 24.54 299.95 24.54 299.63 24.54 299.28 24.52 298.99 24.48 298.7 24.42 298.42 24.33 298.13 24.2 297.86 24.05 297.59 23.87 297.34 23.65 297.11 23.4 296.9 23.12 296.73 22.8 296.58 22.45 296.47 22.07 296.39 21.65 296.37 21.21 296.38 20.72 296.45 20.2 296.5 19.95 296.55 19.7 296.62 19.45 296.68 19.22 296.75 19 296.83 18.78 296.91 18.58 297 18.38 297.09 18.19 297.19 18.01 297.29 17.83 297.4 17.67 297.52 17.51 297.64 17.36 297.77 17.23 297.9 17.09 298.04 16.97 298.19 16.85 298.34 16.75 298.49 16.64 298.66 16.55 298.83 16.47 299 16.39 299.19 16.33 299.38 16.26 299.57 16.21 299.77 16.17 299.99 16.13 300.2 16.1 300.42 16.08 300.65 16.06 300.89 16.06 301.09 16.06 301.28 16.08 301.47 16.09 301.66 16.12 301.83 16.14 302 16.18 302.16 16.21 302.31 16.25 302.46 16.29 302.58 16.33 302.7 16.36 302.8 16.4 302.89 16.43 302.96 16.46 303.02 16.48 303.06 16.5 302.74 18.23 302.74 18.23 302.74 18.23" style="fill:#fff;fill-rule:evenodd"/><polyline points="302.74 18.23 302.74 18.23 302.66 18.18 302.58 18.14 302.49 18.1 302.4 18.06 302.31 18.02 302.2 17.98 302.09 17.95 301.98 17.91 301.86 17.88 301.74 17.85 301.61 17.83 301.48 17.81 301.34 17.8 301.19 17.78 301.04 17.78 300.89 17.78 300.89 17.78 300.73 17.78 300.57 17.8 300.4 17.81 300.22 17.84 300.05 17.89 299.87 17.96 299.7 18.05 299.52 18.16 299.36 18.3 299.19 18.46 299.04 18.66 298.89 18.9 298.75 19.17 298.62 19.48 298.5 19.83 298.4 20.23 298.4 20.23 298.36 20.46 298.34 20.68 298.32 20.9 298.33 21.11 298.35 21.32 298.39 21.52 298.45 21.71 298.52 21.9 298.61 22.07 298.72 22.23 298.86 22.37 299 22.5 299.17 22.61 299.37 22.71 299.58 22.79 299.82 22.85 299.82 22.85 299.9 22.87 299.99 22.88 300.11 22.9 300.23 22.91 300.37 22.92 300.51 22.92 300.67 22.92 300.82 22.91 300.99 22.89 301.15 22.86 301.31 22.82 301.46 22.77 301.62 22.7 301.76 22.61 301.89 22.52 302.02 22.4 301.74 24.07 301.74 24.07 301.7 24.1 301.66 24.14 301.61 24.18 301.56 24.22 301.49 24.27 301.4 24.32 301.3 24.36 301.19 24.4 301.04 24.44 300.88 24.47 300.69 24.5 300.47 24.52 300.23 24.54 299.95 24.54 299.63 24.54 299.28 24.52 299.28 24.52 298.99 24.48 298.7 24.42 298.42 24.33 298.13 24.2 297.86 24.05 297.59 23.87 297.34 23.65 297.11 23.4 296.9 23.12 296.73 22.8 296.58 22.45 296.47 22.07 296.39 21.65 296.37 21.21 296.38 20.72 296.45 20.2 296.45 20.2 296.5 19.95 296.55 19.7 296.62 19.45 296.68 19.22 296.75 19 296.83 18.78 296.91 18.58 297 18.38 297.09 18.19 297.19 18.01 297.29 17.83 297.4 17.67 297.52 17.51 297.64 17.36 297.77 17.23 297.9 17.09 298.04 16.97 298.19 16.85 298.34 16.75 298.49 16.64 298.66 16.55 298.83 16.47 299 16.39 299.19 16.33 299.38 16.26 299.57 16.21 299.77 16.17 299.99 16.13 300.2 16.1 300.42 16.08 300.65 16.06 300.89 16.06 300.89 16.06 301.09 16.06 301.28 16.08 301.47 16.09 301.66 16.12 301.83 16.14 302 16.18 302.16 16.21 302.31 16.25 302.46 16.29 302.58 16.33 302.7 16.36 302.8 16.4 302.89 16.43 302.96 16.46 303.02 16.48 303.06 16.5 302.74 18.23" style="fill:none;stroke:#fff;stroke-miterlimit:2.613100051879883;stroke-width:0.2160000056028366px"/><polygon points="318.14 24.55 316.4 24.55 316.53 23.85 316.53 23.79 316.43 23.92 316.32 24.03 316.22 24.13 316.1 24.22 315.99 24.3 315.88 24.37 315.77 24.42 315.65 24.48 315.53 24.52 315.41 24.55 315.29 24.59 315.17 24.6 315.04 24.62 314.92 24.64 314.8 24.64 314.67 24.64 314.35 24.62 314.05 24.55 313.77 24.44 313.52 24.3 313.3 24.12 313.1 23.9 312.92 23.67 312.77 23.41 312.65 23.13 312.55 22.83 312.48 22.53 312.43 22.21 312.41 21.89 312.42 21.57 312.45 21.25 312.5 20.93 312.6 20.56 312.71 20.21 312.84 19.89 313 19.59 313.16 19.31 313.35 19.06 313.54 18.83 313.75 18.63 313.97 18.45 314.2 18.29 314.44 18.15 314.67 18.05 314.92 17.96 315.17 17.9 315.42 17.86 315.68 17.85 315.86 17.86 316.04 17.88 316.2 17.91 316.35 17.95 316.49 18 316.62 18.06 316.74 18.13 316.85 18.2 316.95 18.27 317.05 18.35 317.13 18.43 317.2 18.51 317.27 18.6 317.32 18.68 317.37 18.75 317.41 18.83 317.41 18.83 317.85 16.37 319.55 16.37 318.14 24.55 318.14 24.55 318.14 24.55" style="fill:#fff;fill-rule:evenodd"/><polyline points="318.14 24.55 316.4 24.55 316.53 23.85 316.53 23.79 316.53 23.79 316.43 23.92 316.32 24.03 316.22 24.13 316.1 24.22 315.99 24.3 315.88 24.37 315.77 24.42 315.65 24.48 315.53 24.52 315.41 24.55 315.29 24.59 315.17 24.6 315.04 24.62 314.92 24.64 314.8 24.64 314.67 24.64 314.67 24.64 314.35 24.62 314.05 24.55 313.77 24.44 313.52 24.3 313.3 24.12 313.1 23.9 312.92 23.67 312.77 23.41 312.65 23.13 312.55 22.83 312.48 22.53 312.43 22.21 312.41 21.89 312.42 21.57 312.45 21.25 312.5 20.93 312.5 20.93 312.6 20.56 312.71 20.21 312.84 19.89 313 19.59 313.16 19.31 313.35 19.06 313.54 18.83 313.75 18.63 313.97 18.45 314.2 18.29 314.44 18.15 314.67 18.05 314.92 17.96 315.17 17.9 315.42 17.86 315.68 17.85 315.68 17.85 315.86 17.86 316.04 17.88 316.2 17.91 316.35 17.95 316.49 18 316.62 18.06 316.74 18.13 316.85 18.2 316.95 18.27 317.05 18.35 317.13 18.43 317.2 18.51 317.27 18.6 317.32 18.68 317.37 18.75 317.41 18.83 317.41 18.83 317.85 16.37 319.55 16.37 318.14 24.55" style="fill:none;stroke:#fff;stroke-miterlimit:2.613100051879883;stroke-width:0.2160000056028366px"/><polygon points="315.3 23.03 315.48 23.02 315.64 22.98 315.79 22.94 315.94 22.87 316.07 22.8 316.19 22.7 316.31 22.6 316.42 22.48 316.51 22.36 316.6 22.22 316.68 22.08 316.75 21.93 316.81 21.77 316.86 21.61 316.9 21.44 316.94 21.27 316.97 21.1 316.99 20.91 316.99 20.75 316.98 20.57 316.96 20.41 316.94 20.25 316.89 20.1 316.84 19.96 316.78 19.83 316.7 19.71 316.62 19.61 316.53 19.53 316.42 19.45 316.31 19.4 316.19 19.37 316.06 19.36 315.89 19.37 315.74 19.4 315.59 19.45 315.45 19.51 315.32 19.59 315.2 19.69 315.09 19.8 314.99 19.91 314.89 20.05 314.8 20.2 314.72 20.35 314.65 20.51 314.59 20.68 314.54 20.85 314.49 21.03 314.45 21.21 314.42 21.48 314.44 21.78 314.48 22.09 314.56 22.38 314.69 22.64 314.85 22.85 315.05 22.98 315.3 23.03 315.3 23.03 315.3 23.03" style="fill:#fbb231;fill-rule:evenodd"/><polygon points="276.91 23.16 276.66 24.55 275.08 24.55 275.13 24.29 275.16 24.06 275.19 23.89 275.21 23.79 275.12 23.89 275.02 23.99 274.9 24.09 274.77 24.17 274.62 24.26 274.47 24.34 274.3 24.41 274.13 24.47 273.95 24.53 273.77 24.57 273.59 24.61 273.4 24.64 273.22 24.65 273.04 24.65 272.87 24.64 272.7 24.61 272.48 24.55 272.28 24.49 272.1 24.41 271.95 24.32 271.81 24.22 271.68 24.1 271.58 23.98 271.5 23.86 271.42 23.73 271.36 23.59 271.31 23.45 271.27 23.32 271.25 23.17 271.23 23.03 271.21 22.89 271.21 22.75 271.23 22.51 271.27 22.28 271.33 22.06 271.42 21.85 271.51 21.65 271.63 21.46 271.76 21.29 271.91 21.13 272.07 20.99 272.24 20.86 272.42 20.74 272.61 20.64 272.81 20.55 273.02 20.48 273.23 20.43 273.45 20.39 273.46 20.39 273.49 20.38 273.54 20.38 273.6 20.37 273.68 20.36 273.77 20.35 273.86 20.34 273.97 20.33 274.07 20.32 274.18 20.3 274.29 20.3 274.39 20.28 274.49 20.28 274.58 20.27 274.67 20.27 274.74 20.27 274.88 20.27 275.04 20.27 275.17 20.28 275.31 20.28 275.42 20.28 275.51 20.29 275.57 20.3 275.59 20.3 275.6 20.25 275.64 20.14 275.67 20.01 275.69 19.89 275.66 19.75 275.6 19.63 275.53 19.52 275.43 19.42 275.31 19.34 275.18 19.28 275.03 19.25 274.87 19.23 274.69 19.23 274.5 19.22 274.31 19.22 274.11 19.23 273.9 19.24 273.7 19.26 273.5 19.28 273.31 19.3 273.12 19.33 272.94 19.36 272.78 19.39 272.63 19.42 272.49 19.46 272.38 19.5 272.29 19.54 272.22 19.58 272.67 18.07 272.8 18.01 272.94 17.96 273.09 17.92 273.24 17.89 273.39 17.86 273.55 17.83 273.72 17.81 273.88 17.8 274.06 17.78 274.24 17.78 274.43 17.77 274.62 17.77 274.82 17.77 275.03 17.77 275.25 17.78 275.47 17.78 275.64 17.8 275.83 17.83 276.02 17.87 276.22 17.93 276.42 18 276.6 18.09 276.79 18.2 276.97 18.31 277.12 18.45 277.26 18.6 277.39 18.77 277.48 18.96 277.54 19.16 277.58 19.37 277.58 19.61 277.54 19.86 276.91 23.16 276.91 23.16 276.91 23.16" style="fill:#fff;fill-rule:evenodd"/><polyline points="276.91 23.16 276.66 24.55 275.08 24.55 275.08 24.55 275.13 24.29 275.16 24.06 275.19 23.89 275.21 23.79 275.21 23.79 275.12 23.89 275.02 23.99 274.9 24.09 274.77 24.17 274.62 24.26 274.47 24.34 274.3 24.41 274.13 24.47 273.95 24.53 273.77 24.57 273.59 24.61 273.4 24.64 273.22 24.65 273.04 24.65 272.87 24.64 272.7 24.61 272.7 24.61 272.48 24.55 272.28 24.49 272.1 24.41 271.95 24.32 271.81 24.22 271.68 24.1 271.58 23.98 271.5 23.86 271.42 23.73 271.36 23.59 271.31 23.45 271.27 23.32 271.25 23.17 271.23 23.03 271.21 22.89 271.21 22.75 271.21 22.75 271.23 22.51 271.27 22.28 271.33 22.06 271.42 21.85 271.51 21.65 271.63 21.46 271.76 21.29 271.91 21.13 272.07 20.99 272.24 20.86 272.42 20.74 272.61 20.64 272.81 20.55 273.02 20.48 273.23 20.43 273.45 20.39 273.45 20.39 273.46 20.39 273.49 20.38 273.54 20.38 273.6 20.37 273.68 20.36 273.77 20.35 273.86 20.34 273.97 20.33 274.07 20.32 274.18 20.3 274.29 20.3 274.39 20.28 274.49 20.28 274.58 20.27 274.67 20.27 274.74 20.27 274.74 20.27 274.88 20.27 275.04 20.27 275.17 20.28 275.31 20.28 275.42 20.28 275.51 20.29 275.57 20.3 275.59 20.3 275.59 20.3 275.6 20.25 275.64 20.14 275.67 20.01 275.69 19.89 275.69 19.89 275.66 19.75 275.6 19.63 275.53 19.52 275.43 19.42 275.31 19.34 275.18 19.28 275.03 19.25 274.87 19.23 274.87 19.23 274.69 19.23 274.5 19.22 274.31 19.22 274.11 19.23 273.9 19.24 273.7 19.26 273.5 19.28 273.31 19.3 273.12 19.33 272.94 19.36 272.78 19.39 272.63 19.42 272.49 19.46 272.38 19.5 272.29 19.54 272.22 19.58 272.67 18.07 272.67 18.07 272.8 18.01 272.94 17.96 273.09 17.92 273.24 17.89 273.39 17.86 273.55 17.83 273.72 17.81 273.88 17.8 274.06 17.78 274.24 17.78 274.43 17.77 274.62 17.77 274.82 17.77 275.03 17.77 275.25 17.78 275.47 17.78 275.47 17.78 275.64 17.8 275.83 17.83 276.02 17.87 276.22 17.93 276.42 18 276.6 18.09 276.79 18.2 276.97 18.31 277.12 18.45 277.26 18.6 277.39 18.77 277.48 18.96 277.54 19.16 277.58 19.37 277.58 19.61 277.54 19.86 276.91 23.16" style="fill:none;stroke:#fff;stroke-miterlimit:2.613100051879883;stroke-width:0.2160000056028366px"/><polygon points="275.4 21.53 275.4 21.5 275.37 21.46 275.33 21.45 275.27 21.43 275.2 21.42 275.12 21.41 275.03 21.41 274.94 21.41 274.83 21.42 274.73 21.43 274.63 21.45 274.53 21.46 274.44 21.47 274.35 21.49 274.27 21.51 274.2 21.53 274.16 21.54 274.11 21.56 274.04 21.58 273.97 21.61 273.89 21.65 273.81 21.7 273.72 21.74 273.64 21.79 273.55 21.85 273.47 21.91 273.4 21.99 273.33 22.07 273.27 22.15 273.22 22.23 273.19 22.33 273.17 22.43 273.16 22.65 273.19 22.82 273.25 22.94 273.33 23.03 273.43 23.1 273.54 23.13 273.63 23.15 273.74 23.16 273.92 23.15 274.09 23.13 274.25 23.11 274.4 23.07 274.52 23.03 274.64 22.97 274.75 22.92 274.84 22.85 274.92 22.78 275 22.71 275.06 22.64 275.11 22.57 275.15 22.49 275.19 22.42 275.22 22.35 275.24 22.28 275.29 22.1 275.33 21.89 275.37 21.69 275.4 21.53 275.4 21.53 275.4 21.53" style="fill:#ec1b2e;fill-rule:evenodd"/><polygon points="263.76 24.55 262.06 24.55 263.48 16.34 266.43 16.34 266.71 21.21 268.76 16.34 271.85 16.34 270.4 24.55 268.7 24.55 269.77 18.41 269.7 18.41 267.16 24.55 265.24 24.55 265.23 24.29 265.18 23.61 265.13 22.64 265.06 21.53 265 20.41 264.94 19.43 264.9 18.71 264.89 18.41 264.87 18.41 264.83 18.41 264.8 18.41 264.8 18.41 263.76 24.55 263.76 24.55 263.76 24.55" style="fill:#fff;fill-rule:evenodd"/><polyline points="263.76 24.55 262.06 24.55 263.48 16.34 266.43 16.34 266.71 21.21 268.76 16.34 271.85 16.34 270.4 24.55 268.7 24.55 269.77 18.41 269.7 18.41 267.16 24.55 265.24 24.55 265.24 24.55 265.23 24.29 265.18 23.61 265.13 22.64 265.06 21.53 265 20.41 264.94 19.43 264.9 18.71 264.89 18.41 264.89 18.41 264.87 18.41 264.83 18.41 264.8 18.41 264.8 18.41 263.76 24.55" style="fill:none;stroke:#fff;stroke-miterlimit:2.613100051879883;stroke-width:0.2160000056028366px"/><polygon points="307.94 23.16 307.68 24.55 306.11 24.55 306.13 24.29 306.13 24.07 306.13 23.9 306.14 23.82 306.06 23.92 305.97 24.01 305.86 24.1 305.73 24.18 305.6 24.27 305.45 24.34 305.3 24.42 305.14 24.48 304.97 24.53 304.8 24.58 304.62 24.61 304.44 24.64 304.26 24.65 304.09 24.65 303.92 24.64 303.75 24.61 303.52 24.55 303.32 24.49 303.15 24.41 302.99 24.32 302.85 24.22 302.73 24.1 302.63 23.98 302.54 23.86 302.47 23.73 302.41 23.59 302.36 23.45 302.33 23.32 302.31 23.17 302.29 23.03 302.27 22.89 302.27 22.75 302.29 22.51 302.32 22.28 302.38 22.06 302.46 21.85 302.56 21.65 302.68 21.46 302.81 21.29 302.95 21.13 303.11 20.99 303.28 20.86 303.46 20.74 303.66 20.64 303.85 20.55 304.06 20.48 304.26 20.43 304.48 20.39 304.49 20.39 304.52 20.38 304.56 20.38 304.63 20.37 304.71 20.36 304.8 20.35 304.89 20.34 304.99 20.33 305.1 20.32 305.21 20.3 305.31 20.3 305.42 20.28 305.52 20.28 305.61 20.27 305.69 20.27 305.76 20.27 305.91 20.27 306.06 20.27 306.21 20.28 306.35 20.28 306.46 20.28 306.56 20.29 306.62 20.3 306.64 20.3 306.66 20.25 306.68 20.14 306.69 20.01 306.71 19.89 306.68 19.75 306.63 19.63 306.55 19.52 306.46 19.42 306.35 19.34 306.21 19.28 306.08 19.25 305.93 19.23 305.75 19.23 305.56 19.22 305.37 19.22 305.17 19.23 304.96 19.24 304.76 19.26 304.56 19.28 304.37 19.3 304.18 19.33 304 19.36 303.84 19.39 303.69 19.42 303.55 19.46 303.44 19.5 303.35 19.54 303.28 19.58 303.72 18.07 303.86 18.01 304 17.96 304.14 17.92 304.29 17.89 304.45 17.86 304.61 17.83 304.77 17.81 304.94 17.8 305.11 17.78 305.3 17.78 305.48 17.77 305.67 17.77 305.86 17.77 306.06 17.77 306.28 17.78 306.49 17.78 306.66 17.8 306.85 17.83 307.05 17.87 307.25 17.93 307.44 18 307.63 18.09 307.82 18.2 308 18.31 308.15 18.45 308.3 18.6 308.42 18.77 308.51 18.96 308.58 19.16 308.63 19.37 308.63 19.61 308.6 19.86 307.94 23.16 307.94 23.16 307.94 23.16" style="fill:#fff;fill-rule:evenodd"/><polygon points="307.68 24.59 307.72 24.55 307.98 23.17 307.9 23.15 307.64 24.54 307.68 24.5 307.68 24.59 307.71 24.59 307.72 24.55 307.68 24.59 307.68 24.59 307.68 24.59" style="fill:#fff;fill-rule:evenodd"/><polygon points="306.08 24.55 306.11 24.59 307.68 24.59 307.68 24.5 306.11 24.5 306.15 24.55 306.08 24.55 306.07 24.59 306.11 24.59 306.08 24.55 306.08 24.55 306.08 24.55" style="fill:#fff;fill-rule:evenodd"/><polygon points="306.18 23.85 306.12 23.8 306.1 23.9 306.09 24.07 306.09 24.29 306.08 24.55 306.15 24.55 306.16 24.29 306.18 24.07 306.17 23.9 306.17 23.85 306.11 23.8 306.18 23.85 306.18 23.85 306.18 23.85" style="fill:#fff;fill-rule:evenodd"/><polygon points="303.74 24.65 303.74 24.65 303.92 24.67 304.09 24.69 304.26 24.68 304.44 24.67 304.63 24.65 304.8 24.62 304.98 24.57 305.15 24.52 305.31 24.45 305.47 24.38 305.62 24.3 305.75 24.22 305.88 24.13 306 24.04 306.1 23.94 306.18 23.85 306.11 23.8 306.03 23.89 305.94 23.98 305.83 24.07 305.71 24.15 305.58 24.23 305.43 24.3 305.28 24.38 305.13 24.44 304.96 24.49 304.79 24.54 304.61 24.57 304.44 24.6 304.26 24.61 304.09 24.62 303.92 24.6 303.76 24.57 303.76 24.57 303.74 24.65 303.74 24.65 303.74 24.65" style="fill:#fff;fill-rule:evenodd"/><polygon points="302.23 22.75 302.23 22.75 302.24 22.89 302.25 23.03 302.27 23.18 302.29 23.32 302.32 23.46 302.38 23.6 302.43 23.75 302.51 23.88 302.6 24.01 302.7 24.13 302.82 24.25 302.97 24.35 303.13 24.45 303.31 24.53 303.52 24.59 303.74 24.65 303.76 24.57 303.53 24.52 303.34 24.45 303.17 24.37 303.01 24.29 302.88 24.18 302.76 24.08 302.66 23.96 302.57 23.84 302.51 23.71 302.45 23.58 302.4 23.45 302.37 23.31 302.34 23.17 302.32 23.03 302.31 22.89 302.32 22.75 302.32 22.75 302.23 22.75 302.23 22.75 302.23 22.75" style="fill:#fff;fill-rule:evenodd"/><polygon points="304.48 20.35 304.48 20.35 304.26 20.39 304.04 20.45 303.84 20.52 303.64 20.6 303.44 20.7 303.26 20.83 303.09 20.96 302.93 21.11 302.77 21.27 302.64 21.44 302.52 21.63 302.43 21.83 302.34 22.05 302.29 22.27 302.25 22.51 302.23 22.75 302.32 22.75 302.32 22.51 302.36 22.28 302.42 22.07 302.5 21.86 302.59 21.66 302.71 21.49 302.84 21.32 302.98 21.16 303.14 21.02 303.31 20.89 303.48 20.78 303.68 20.68 303.86 20.59 304.07 20.52 304.27 20.46 304.48 20.43 304.48 20.43 304.48 20.35 304.48 20.35 304.48 20.35" style="fill:#fff;fill-rule:evenodd"/><polygon points="305.76 20.22 305.76 20.22 305.69 20.22 305.61 20.23 305.52 20.24 305.42 20.25 305.31 20.26 305.21 20.27 305.1 20.28 304.99 20.29 304.89 20.3 304.8 20.32 304.71 20.32 304.63 20.33 304.56 20.34 304.51 20.35 304.49 20.35 304.48 20.35 304.48 20.43 304.49 20.43 304.53 20.42 304.56 20.41 304.63 20.41 304.71 20.4 304.8 20.39 304.89 20.38 304.99 20.36 305.1 20.35 305.21 20.34 305.31 20.33 305.42 20.32 305.52 20.32 305.61 20.31 305.69 20.31 305.76 20.31 305.76 20.31 305.76 20.22 305.76 20.22 305.76 20.22" style="fill:#fff;fill-rule:evenodd"/><polygon points="306.61 20.29 306.64 20.26 306.62 20.26 306.56 20.25 306.46 20.25 306.35 20.23 306.21 20.23 306.06 20.23 305.91 20.22 305.76 20.22 305.76 20.31 305.91 20.31 306.06 20.31 306.21 20.32 306.35 20.32 306.46 20.32 306.56 20.33 306.62 20.33 306.64 20.33 306.68 20.3 306.64 20.33 306.68 20.34 306.68 20.3 306.61 20.29 306.61 20.29 306.61 20.29" style="fill:#fff;fill-rule:evenodd"/><polygon points="306.67 19.89 306.66 19.89 306.66 20.01 306.64 20.13 306.62 20.25 306.61 20.29 306.68 20.3 306.69 20.26 306.71 20.15 306.73 20.01 306.75 19.89 306.75 19.89 306.67 19.89 306.67 19.89 306.67 19.89" style="fill:#fff;fill-rule:evenodd"/><polygon points="305.93 19.27 305.93 19.28 306.07 19.28 306.2 19.32 306.33 19.38 306.43 19.45 306.52 19.54 306.6 19.65 306.64 19.76 306.67 19.89 306.75 19.89 306.72 19.75 306.67 19.61 306.58 19.49 306.48 19.39 306.36 19.3 306.23 19.25 306.08 19.21 305.93 19.19 305.93 19.2 305.93 19.27 305.93 19.27 305.93 19.27" style="fill:#fff;fill-rule:evenodd"/><polygon points="303.24 19.57 303.31 19.61 303.37 19.58 303.45 19.53 303.56 19.5 303.69 19.46 303.84 19.43 304.01 19.4 304.19 19.36 304.37 19.34 304.56 19.32 304.76 19.3 304.96 19.28 305.17 19.27 305.37 19.27 305.56 19.27 305.75 19.27 305.93 19.27 305.93 19.2 305.75 19.19 305.56 19.18 305.37 19.18 305.17 19.19 304.96 19.2 304.76 19.22 304.56 19.24 304.37 19.27 304.18 19.29 303.99 19.32 303.83 19.35 303.68 19.38 303.54 19.42 303.43 19.46 303.33 19.5 303.26 19.55 303.32 19.58 303.24 19.57 303.24 19.57 303.24 19.57" style="fill:#fff;fill-rule:evenodd"/><polygon points="303.71 18.03 303.68 18.06 303.24 19.57 303.32 19.58 303.76 18.08 303.73 18.11 303.71 18.03 303.69 18.04 303.68 18.06 303.71 18.03 303.71 18.03 303.71 18.03" style="fill:#fff;fill-rule:evenodd"/><polygon points="306.49 17.75 306.49 17.75 306.28 17.73 306.06 17.73 305.86 17.73 305.67 17.73 305.48 17.73 305.3 17.74 305.11 17.75 304.94 17.76 304.77 17.77 304.6 17.8 304.44 17.82 304.29 17.85 304.14 17.88 303.99 17.93 303.84 17.98 303.71 18.03 303.73 18.11 303.87 18.05 304.01 18 304.15 17.96 304.3 17.93 304.46 17.89 304.61 17.87 304.77 17.84 304.94 17.83 305.11 17.82 305.3 17.81 305.48 17.81 305.67 17.81 305.86 17.81 306.06 17.81 306.28 17.82 306.49 17.82 306.49 17.82 306.49 17.75 306.49 17.75 306.49 17.75" style="fill:#fff;fill-rule:evenodd"/><polygon points="308.63 19.86 308.63 19.86 308.66 19.61 308.66 19.37 308.62 19.15 308.55 18.95 308.45 18.75 308.33 18.58 308.18 18.42 308.02 18.28 307.84 18.16 307.65 18.05 307.45 17.96 307.26 17.89 307.05 17.83 306.86 17.79 306.66 17.76 306.49 17.75 306.49 17.82 306.66 17.83 306.85 17.86 307.04 17.91 307.23 17.96 307.43 18.04 307.61 18.13 307.8 18.23 307.97 18.34 308.13 18.48 308.26 18.63 308.39 18.79 308.48 18.97 308.55 19.16 308.59 19.37 308.59 19.61 308.56 19.85 308.56 19.85 308.63 19.86 308.63 19.86 308.63 19.86" style="fill:#fff;fill-rule:evenodd"/><polygon points="307.98 23.17 307.98 23.17 308.63 19.86 308.56 19.85 307.9 23.15 307.9 23.15 307.98 23.17 307.98 23.17 307.98 23.17" style="fill:#fff;fill-rule:evenodd"/><polygon points="306.43 21.53 306.41 21.49 306.39 21.46 306.35 21.44 306.28 21.42 306.21 21.41 306.13 21.41 306.04 21.41 305.94 21.41 305.85 21.43 305.75 21.44 305.64 21.45 305.55 21.46 305.46 21.48 305.38 21.5 305.3 21.52 305.23 21.53 305.19 21.53 305.14 21.55 305.08 21.57 305.01 21.6 304.93 21.63 304.85 21.67 304.76 21.71 304.68 21.77 304.6 21.83 304.52 21.9 304.45 21.96 304.38 22.05 304.33 22.13 304.28 22.23 304.24 22.33 304.23 22.43 304.22 22.65 304.25 22.82 304.3 22.94 304.38 23.03 304.47 23.1 304.58 23.13 304.68 23.15 304.79 23.16 304.98 23.15 305.15 23.13 305.31 23.1 305.46 23.06 305.6 23.01 305.71 22.95 305.83 22.89 305.93 22.82 306.01 22.75 306.09 22.67 306.16 22.59 306.21 22.51 306.26 22.43 306.29 22.36 306.31 22.28 306.33 22.21 306.36 22.04 306.39 21.86 306.41 21.68 306.43 21.53 306.43 21.53 306.43 21.53" style="fill:#fbb231;fill-rule:evenodd"/><polygon points="319.31 23.69 319.32 23.55 319.37 23.38 319.45 23.23 319.56 23.1 319.69 22.99 319.84 22.92 320 22.87 320.18 22.85 320.36 22.87 320.52 22.92 320.67 22.99 320.8 23.1 320.91 23.23 320.99 23.38 321.04 23.55 321.06 23.69 320.87 23.69 320.86 23.58 320.82 23.44 320.76 23.32 320.68 23.21 320.58 23.12 320.46 23.06 320.32 23.02 320.18 23 320.04 23.02 319.9 23.06 319.78 23.12 319.68 23.21 319.6 23.32 319.54 23.44 319.5 23.58 319.49 23.69 319.31 23.69 319.31 23.69 319.31 23.69" style="fill:#fff;fill-rule:evenodd"/><polygon points="319.87 23.69 319.87 23.32 320.21 23.32 320.29 23.32 320.36 23.34 320.41 23.35 320.45 23.38 320.48 23.42 320.51 23.45 320.52 23.5 320.52 23.54 320.52 23.6 320.51 23.64 320.49 23.68 320.47 23.69 320.21 23.69 320.24 23.68 320.28 23.68 320.32 23.67 320.35 23.65 320.37 23.64 320.39 23.62 320.4 23.59 320.4 23.54 320.39 23.51 320.38 23.48 320.36 23.47 320.34 23.46 320.31 23.45 320.28 23.45 320.25 23.45 320.21 23.45 320.02 23.45 320.02 23.69 319.87 23.69 319.87 23.69 319.87 23.69" style="fill:#fff;fill-rule:evenodd"/><polygon points="319.31 23.69 319.3 23.73 319.32 23.91 319.37 24.08 319.45 24.23 319.56 24.35 319.69 24.46 319.84 24.54 320 24.59 320.18 24.61 320.36 24.59 320.52 24.54 320.67 24.46 320.8 24.35 320.91 24.23 320.99 24.08 321.04 23.91 321.06 23.73 321.06 23.69 320.87 23.69 320.87 23.73 320.86 23.88 320.82 24.02 320.76 24.14 320.68 24.24 320.58 24.33 320.46 24.4 320.32 24.44 320.18 24.45 320.04 24.44 319.9 24.4 319.78 24.33 319.68 24.24 319.6 24.14 319.54 24.02 319.5 23.88 319.49 23.73 319.49 23.69 319.31 23.69 319.31 23.69 319.31 23.69" style="fill:#fff;fill-rule:evenodd"/><polygon points="319.87 23.69 319.87 24.07 320.02 24.07 320.02 23.76 320.18 23.76 320.37 24.07 320.49 24.07 320.31 23.76 320.35 23.76 320.39 23.75 320.43 23.73 320.46 23.71 320.47 23.69 320.21 23.69 320.18 23.7 320.02 23.7 320.02 23.69 319.87 23.69 319.87 23.69 319.87 23.69" style="fill:#fff;fill-rule:evenodd"/><path d="M319.3,23.73h0l0-.18.05-.17.09-.15.11-.13.13-.11.15-.07.16-.05.18,0h0l.18,0,.16.05.15.07.13.11.11.13.09.15.05.17,0,.18h0l0,.18-.05.17-.09.15-.11.13-.13.11-.15.08-.16.05-.18,0h0l-.18,0-.16-.05-.15-.08-.13-.11-.11-.13-.09-.15-.05-.17,0-.18m.73.34h-.16v-.76h.49l.05,0,0,0,0,0,0,0v.09h0v.1l0,0,0,0,0,0h-.13l.19.31h-.13l-.19-.31H320v.31m.16-.38h.17l0,0v-.09h0v-.06H320v.25h.16m0,.76h.14l.14,0,.12-.07.1-.09.08-.11.06-.12,0-.14v-.15h0v-.15l0-.14-.06-.12-.08-.11-.1-.09-.12-.06-.14,0H320l-.14,0-.12.06-.1.09-.08.11-.06.12,0,.14v.15h0v.15l0,.14.06.12.08.11.1.09.12.07.14,0h.14" style="fill:none;stroke:#fff;stroke-miterlimit:2.613100051879883;stroke-width:0.2160000056028366px"/><polygon points="308.41 24.55 310.17 24.55 310.17 24.55 310.8 20.99 310.83 20.85 310.87 20.71 310.9 20.58 310.95 20.44 311.01 20.3 311.09 20.17 311.17 20.05 311.27 19.93 311.38 19.82 311.51 19.72 311.65 19.63 311.81 19.55 312 19.49 312.2 19.44 312.42 19.4 312.66 19.39 312.75 19.39 312.8 19.39 312.82 19.39 312.82 19.39 313.1 17.78 312.92 17.8 312.75 17.81 312.6 17.84 312.45 17.89 312.31 17.94 312.18 18 312.05 18.07 311.93 18.14 311.82 18.23 311.71 18.32 311.62 18.42 311.51 18.52 311.42 18.63 311.33 18.75 311.23 18.86 311.15 18.98 311.33 17.85 309.58 17.85 308.41 24.55 308.41 24.55 308.41 24.55 308.41 24.55" style="fill:#fff;fill-rule:evenodd"/><polyline points="308.41 24.55 310.17 24.55 310.17 24.55 310.8 20.99 310.8 20.99 310.83 20.85 310.87 20.71 310.9 20.58 310.95 20.44 311.01 20.3 311.09 20.17 311.17 20.05 311.27 19.93 311.38 19.82 311.51 19.72 311.65 19.63 311.81 19.55 312 19.49 312.2 19.44 312.42 19.4 312.66 19.39 312.66 19.39 312.75 19.39 312.8 19.39 312.82 19.39 312.82 19.39 313.1 17.78 313.1 17.78 312.92 17.8 312.75 17.81 312.6 17.84 312.45 17.89 312.31 17.94 312.18 18 312.05 18.07 311.93 18.14 311.82 18.23 311.71 18.32 311.62 18.42 311.51 18.52 311.42 18.63 311.33 18.75 311.23 18.86 311.15 18.98 311.33 17.85 309.58 17.85 308.41 24.55 308.41 24.55" style="fill:none;stroke:#fff;stroke-miterlimit:2.613100051879883;stroke-width:0.2160000056028366px"/><polygon points="291.85 24.55 293.62 24.55 293.65 24.55 294.25 20.99 294.27 20.85 294.3 20.72 294.33 20.59 294.38 20.46 294.43 20.34 294.49 20.22 294.57 20.11 294.65 20 294.75 19.91 294.87 19.82 295 19.74 295.15 19.67 295.33 19.61 295.52 19.57 295.74 19.53 295.98 19.52 296 19.52 296.02 19.52 296.05 19.53 296.09 19.53 296.12 19.53 296.14 19.54 296.16 19.55 296.17 19.55 296.17 19.52 296.19 19.45 296.22 19.33 296.25 19.2 296.29 19.03 296.34 18.86 296.39 18.68 296.45 18.51 296.5 18.39 296.56 18.27 296.62 18.15 296.69 18.05 296.74 17.95 296.79 17.88 296.82 17.83 296.83 17.81 296.82 17.81 296.8 17.81 296.77 17.8 296.72 17.8 296.68 17.8 296.63 17.79 296.59 17.78 296.54 17.78 296.35 17.8 296.17 17.81 296.01 17.84 295.86 17.88 295.72 17.93 295.58 18 295.47 18.06 295.35 18.13 295.25 18.21 295.15 18.31 295.05 18.4 294.96 18.51 294.87 18.61 294.78 18.73 294.69 18.86 294.59 18.98 294.82 17.85 293.02 17.85 291.85 24.55 291.85 24.55 291.85 24.55 291.85 24.55" style="fill:#fff;fill-rule:evenodd"/><polyline points="291.85 24.55 293.62 24.55 293.65 24.55 294.25 20.99 294.25 20.99 294.27 20.85 294.3 20.72 294.33 20.59 294.38 20.46 294.43 20.34 294.49 20.22 294.57 20.11 294.65 20 294.75 19.91 294.87 19.82 295 19.74 295.15 19.67 295.33 19.61 295.52 19.57 295.74 19.53 295.98 19.52 295.98 19.52 296 19.52 296.02 19.52 296.05 19.53 296.09 19.53 296.12 19.53 296.14 19.54 296.16 19.55 296.17 19.55 296.17 19.55 296.17 19.52 296.19 19.45 296.22 19.33 296.25 19.2 296.29 19.03 296.34 18.86 296.39 18.68 296.45 18.51 296.45 18.51 296.5 18.39 296.56 18.27 296.62 18.15 296.69 18.05 296.74 17.95 296.79 17.88 296.82 17.83 296.83 17.81 296.83 17.81 296.82 17.81 296.8 17.81 296.77 17.8 296.72 17.8 296.68 17.8 296.63 17.79 296.59 17.78 296.54 17.78 296.54 17.78 296.35 17.8 296.17 17.81 296.01 17.84 295.86 17.88 295.72 17.93 295.58 18 295.47 18.06 295.35 18.13 295.25 18.21 295.15 18.31 295.05 18.4 294.96 18.51 294.87 18.61 294.78 18.73 294.69 18.86 294.59 18.98 294.82 17.85 293.02 17.85 291.85 24.55 291.85 24.55" style="fill:none;stroke:#fff;stroke-miterlimit:2.613100051879883;stroke-width:0.2160000056028366px"/><polygon points="160.84 34.73 165.88 5.13 173.95 5.13 168.9 34.73 160.84 34.73" style="fill:#00589f"/><path d="M198.17,5.86a20.84,20.84,0,0,0-7.23-1.24c-8,0-13.59,4-13.64,9.77,0,4.25,4,6.63,7.07,8s4.2,2.38,4.18,3.67c0,2-2.51,2.89-4.83,2.89a16.91,16.91,0,0,1-7.59-1.55l-1-.47L174,33.59a25.55,25.55,0,0,0,9,1.58c8.48,0,14-4,14-10.11,0-3.37-2.12-5.93-6.77-8-2.82-1.37-4.55-2.28-4.53-3.67,0-1.23,1.46-2.55,4.62-2.55a14.88,14.88,0,0,1,6,1.13l.72.34,1.09-6.42" style="fill:#00589f"/><path d="M218.86,5.16h-6.23c-1.93,0-3.38.53-4.23,2.45l-12,27.13h8.47s1.39-3.65,1.7-4.45h10.33c.24,1,1,4.44,1,4.44h7.49L218.86,5.16m-9.95,19.08c.67-1.71,3.21-8.27,3.21-8.27s.66-1.71,1.07-2.83l.55,2.55,1.87,8.55Z" style="fill:#00589f"/><path d="M154.07,5.15l-7.9,20.19-.84-4.1c-1.47-4.73-6.05-9.85-11.17-12.42l7.22,25.89h8.54l12.7-29.54h-8.55" style="fill:#00589f"/><path d="M138.84,5.14h-13l-.1.62c10.12,2.45,16.82,8.37,19.6,15.49L142.5,7.64c-.49-1.87-1.9-2.43-3.66-2.5" style="fill:#f9a51a"/></g></g></svg>