<svg xmlns="http://www.w3.org/2000/svg" viewBox="0 0 32 32"><title>prepacks</title><g id="Layer_2" data-name="Layer 2"><g id="Layer_2-2" data-name="Layer 2"><g id="lettuce"><rect width="32" height="32" style="fill:none"/><path d="M27,14a7,7,0,0,0-5-6.7A6.2,6.2,0,0,0,16,1V31h1a2,2,0,0,0,2-2V27h0a4.94,4.94,0,0,0,3.56-1.74A4.65,4.65,0,0,0,24,21.77,4.92,4.92,0,0,0,23.58,20,7,7,0,0,0,27,14Z" style="fill:#efe2c7"/><path d="M22,7.3A6.2,6.2,0,0,0,15.9,1h0A6,6,0,0,0,10,7.2v.1A7,7,0,0,0,8.42,20a4.58,4.58,0,0,0,1,5.25A4.94,4.94,0,0,0,13,27h0v2a2,2,0,0,0,2,2h2a2,2,0,0,0,2-2V27h0a4.94,4.94,0,0,0,3.56-1.74,4.58,4.58,0,0,0,1-5.25A7,7,0,0,0,22,7.3Zm-.18,11.36a1,1,0,0,0-.43,1.54,2.65,2.65,0,0,1-.23,3.66c-1.3,1.31-2.15,1.23-2.9,1a1,1,0,0,0-1.26,1V29H15V25.86a1,1,0,0,0-1.25-1c-.75.19-1.59.27-2.89-1a2.65,2.65,0,0,1-.23-3.66,1,1,0,0,0-.43-1.54,5,5,0,0,1,1.08-9.6C12.41,8.89,12,7.95,12,7a4,4,0,0,1,3.9-4,4.14,4.14,0,0,1,4,4.86A1,1,0,0,0,20.67,9h.07a5,5,0,0,1,1.08,9.6Z" style="fill:#412b2f"/><path d="M18.71,13.71a1,1,0,0,0-1.41-1.41l-.29.29V10a1,1,0,0,0-2,0v2.59l-.29-.29a1,1,0,0,0-1.41,1.41L15,15.41v2.17l-.29-.29a1,1,0,0,0-1.41,1.41L15,20.41V22a1,1,0,0,0,2,0V20.41l1.71-1.71a1,1,0,0,0-1.41-1.41l-.29.29V15.41Z" style="fill:#465902"/></g></g></g></svg>