<svg xmlns="http://www.w3.org/2000/svg" viewBox="0 0 45.62 45.62"><title>veggies</title><g id="Layer_2" data-name="Layer 2"><g id="Layer_1-2" data-name="Layer 1"><g id="corn"><rect width="45.62" height="45.62" style="fill:none"/><path d="M32.49,9.83a9.45,9.45,0,0,0-9.68-8.4,9.45,9.45,0,0,0-9.68,8.4l-.93,10.39a1.43,1.43,0,0,0,1.12,1.52,10,10,0,0,1,8.05,9.64,1.43,1.43,0,0,0,2.85,0,10,10,0,0,1,8.05-9.63,1.43,1.43,0,0,0,1.12-1.52Z" style="fill:#efe2c7"/><circle cx="19.96" cy="9.98" r="1.43" style="fill:#412b2f"/><circle cx="25.66" cy="9.98" r="1.43" style="fill:#412b2f"/><circle cx="19.96" cy="15.68" r="1.43" style="fill:#412b2f"/><circle cx="25.66" cy="15.68" r="1.43" style="fill:#412b2f"/><path d="M35.64,18.53a20.9,20.9,0,0,0-2.36.14l-.79-8.84a9.45,9.45,0,0,0-9.68-8.41,9.45,9.45,0,0,0-9.68,8.4l-.79,8.84A20.9,20.9,0,0,0,10,18.53a1.43,1.43,0,1,0,0,2.85,17.1,17.1,0,0,1,2.11.13l-.63,7c-.43,4.85,1.59,8.39,5.35,9.53v1.84a4.28,4.28,0,0,0,4.28,4.28h3.45a4.28,4.28,0,0,0,4.28-4.28V38.08c3.75-1.14,5.78-4.69,5.35-9.53l-.63-7a17.13,17.13,0,0,1,2.11-.13,1.43,1.43,0,1,0,0-2.85ZM16,10.08a6.7,6.7,0,0,1,6.84-5.8,6.7,6.7,0,0,1,6.84,5.8l.82,9.15a12,12,0,0,0-7.66,6.47,12,12,0,0,0-7.65-6.47ZM27.16,35.54A1.43,1.43,0,0,0,26,36.95v3a1.43,1.43,0,0,1-1.43,1.43H21.09a1.43,1.43,0,0,1-1.43-1.43v-3a1.43,1.43,0,0,0-1.21-1.41c-4.23-.66-4.31-4.93-4.15-6.74l.59-6.63a10.1,10.1,0,0,1,6.49,9.19,1.43,1.43,0,0,0,2.85,0,10,10,0,0,1,6.49-9.2l.59,6.63c.16,1.8.08,6.07-4.15,6.74Z" style="fill:#412b2f"/></g></g></g></svg>